<?xml version="1.0" encoding="UTF-8" standalone="no"?>
<svg
   width="100"
   height="100"
   viewBox="0 0 93.75 93.750002"
   version="1.1"
   id="svg2"
   sodipodi:docname="mastadon.svg"
   inkscape:version="1.3.1 (9b9bdc1480, 2023-11-25, custom)"
   xmlns:inkscape="http://www.inkscape.org/namespaces/inkscape"
   xmlns:sodipodi="http://sodipodi.sourceforge.net/DTD/sodipodi-0.dtd"
   xmlns="http://www.w3.org/2000/svg"
   xmlns:svg="http://www.w3.org/2000/svg">
  <defs
     id="defs2" />
  <sodipodi:namedview
     id="namedview2"
     pagecolor="#ffffff"
     bordercolor="#000000"
     borderopacity="0.25"
     inkscape:showpageshadow="2"
     inkscape:pageopacity="0.0"
     inkscape:pagecheckerboard="0"
     inkscape:deskcolor="#d1d1d1"
     inkscape:document-units="mm"
     showgrid="false"
     inkscape:zoom="9.0975213"
     inkscape:cx="-1.3740006"
     inkscape:cy="33.965296"
     inkscape:window-width="1920"
     inkscape:window-height="1009"
     inkscape:window-x="0"
     inkscape:window-y="37"
     inkscape:window-maximized="1"
     inkscape:current-layer="svg2" />
  <path
     id="path2"
     style="fill:#ffffff;fill-opacity:1;stroke-width:49.6092;stroke-linecap:square;stroke-linejoin:bevel"
     d="M 46.875,0 A 46.875,46.875 0 0 0 0,46.875 46.875,46.875 0 0 0 46.875,93.750001 46.875,46.875 0 0 0 93.750001,46.875 46.875,46.875 0 0 0 46.875,0 Z m 0.631711,13.156125 h 0.23804 c 9.591236,0.0748 18.82114,1.069185 24.197384,3.424075 0,0 10.665896,4.547476 10.665896,20.06836 0,0 0.12854,11.449545 -1.49231,19.400021 -1.02868,5.047066 -9.212626,10.56588 -18.61267,11.636354 -4.901716,0.5578 -9.73107,1.07659 -14.87732,0.85144 -8.416221,-0.36775 -15.051271,-1.91345 -15.051271,-1.91345 0,0.78136 0.0454,1.51978 0.14648,2.215576 1.094174,7.92117 8.240418,8.39386 15.005495,8.61511 6.828124,0.2228 12.908936,-1.60217 12.908936,-1.60217 l 0.274648,5.88684 c 0,0 -4.776334,2.443216 -13.284304,2.893066 -4.691527,0.24595 -10.509421,-0.1092 -17.294301,-1.8219 C 15.61616,79.094981 13.085615,64.131831 12.698365,48.953245 c -0.1184,-4.506619 -0.0458,-8.750585 -0.0458,-12.304685 0,-15.520884 10.656739,-20.06836 10.656739,-20.06836 5.376646,-2.35489 14.606166,-3.349275 24.197387,-3.424075 z M 36.64856,25.286866 c -3.453074,0 -6.234706,1.156788 -8.358764,3.414914 -2.059796,2.25814 -3.08533,5.305216 -3.08533,9.14612 v 18.795777 h 7.809448 V 38.40637 c 0,-3.845134 1.69708,-5.804444 5.090332,-5.804444 3.751768,0 5.630494,2.315984 5.630494,6.893924 v 9.988401 h 7.763671 V 39.49585 c 0,-4.57794 1.878724,-6.893924 5.630496,-6.893924 3.393244,0 5.090328,1.95931 5.090328,5.804444 v 18.237307 h 7.809452 V 37.8479 c 0,-3.840904 -1.025942,-6.88798 -3.085326,-9.14612 -2.12447,-2.258126 -4.906096,-3.414914 -8.358766,-3.414914 -3.995498,0 -7.027128,1.46528 -9.0271,4.39453 l -1.94092,3.103634 -1.940915,-3.103634 c -2.00038,-2.92925 -5.03201,-4.39453 -9.0271,-4.39453 z" />
</svg>
