<?xml version="1.0" encoding="UTF-8" standalone="no"?>
<!-- Created with Inkscape (http://www.inkscape.org/) -->

<svg
   width="15.867989mm"
   height="15.867989mm"
   viewBox="0 0 15.867989 15.867989"
   version="1.1"
   id="svg5"
   inkscape:version="1.2.2 (b0a8486541, 2022-12-01)"
   sodipodi:docname="drawing.svg"
   xmlns:inkscape="http://www.inkscape.org/namespaces/inkscape"
   xmlns:sodipodi="http://sodipodi.sourceforge.net/DTD/sodipodi-0.dtd"
   xmlns="http://www.w3.org/2000/svg"
   xmlns:svg="http://www.w3.org/2000/svg">
  <sodipodi:namedview
     id="namedview7"
     pagecolor="#ffffff"
     bordercolor="#000000"
     borderopacity="0.25"
     inkscape:showpageshadow="2"
     inkscape:pageopacity="0.0"
     inkscape:pagecheckerboard="0"
     inkscape:deskcolor="#d1d1d1"
     inkscape:document-units="mm"
     showgrid="false"
     inkscape:zoom="5.5131926"
     inkscape:cx="-26.935391"
     inkscape:cy="48.701364"
     inkscape:window-width="1920"
     inkscape:window-height="1011"
     inkscape:window-x="0"
     inkscape:window-y="0"
     inkscape:window-maximized="1"
     inkscape:current-layer="layer1" />
  <defs
     id="defs2" />
  <g
     inkscape:label="Layer 1"
     inkscape:groupmode="layer"
     id="layer1"
     transform="translate(-97.830166,-95.817913)">
    <circle
       style="fill:#000000;stroke-width:0.264583"
       id="path111"
       cx="105.76416"
       cy="103.75191"
       r="7.9339943" />
    <path
       style="fill:#ffffff;stroke-width:0.181383;stroke:#ffffff"
       d="m 395.95932,421.79231 c -16.23158,-2.05804 -27.96901,-17.23519 -25.84714,-33.42176 1.74986,-13.34868 12.06741,-23.85127 25.34566,-25.80024 2.7796,-0.40799 7.63914,-0.28092 10.18635,0.26634 17.86164,3.83756 28.23773,22.0179 22.30085,39.07413 -3.30244,9.48766 -11.21609,16.73157 -21.01204,19.23376 -2.98135,0.76153 -7.82257,1.0473 -10.97368,0.64777 z"
       id="path251"
       transform="scale(0.26458333)" />
    <g
       transform="matrix(0.35467925,0,0,0.35467925,100.83279,98.206273)"
       fill="#040404"
       id="g261">
      <path
         d="M 27.1,31.2 V 0.7 h -2.19 v -0.732 h 3.04 v 32 h -3.04 v -0.732 z"
         id="path255" />
      <path
         d="m 8.23,10.4 v 1.54 h 0.044 c 0.385,-0.564 0.893,-1.03 1.49,-1.37 0.58,-0.323 1.25,-0.485 1.99,-0.485 0.72,0 1.38,0.14 1.97,0.42 0.595,0.279 1.05,0.771 1.36,1.48 0.338,-0.5 0.796,-0.941 1.38,-1.32 0.58,-0.383 1.27,-0.574 2.06,-0.574 0.602,0 1.16,0.074 1.67,0.22 0.514,0.148 0.954,0.383 1.32,0.707 0.366,0.323 0.653,0.746 0.859,1.27 0.205,0.522 0.308,1.15 0.308,1.89 v 7.63 h -3.13 v -6.46 c 0,-0.383 -0.015,-0.743 -0.044,-1.08 -0.0209,-0.307 -0.103,-0.607 -0.242,-0.882 -0.133,-0.251 -0.336,-0.458 -0.584,-0.596 -0.257,-0.146 -0.606,-0.22 -1.05,-0.22 -0.44,0 -0.796,0.085 -1.07,0.253 -0.272,0.17 -0.485,0.39 -0.639,0.662 -0.159,0.287 -0.264,0.602 -0.308,0.927 -0.052,0.347 -0.078,0.697 -0.078,1.05 v 6.35 h -3.13 v -6.4 c 0,-0.338 -0.007,-0.673 -0.021,-1 -0.0114,-0.314 -0.0749,-0.623 -0.188,-0.916 -0.108,-0.277 -0.3,-0.512 -0.55,-0.673 -0.258,-0.168 -0.636,-0.253 -1.14,-0.253 -0.198,0.0083 -0.394,0.042 -0.584,0.1 -0.258,0.0745 -0.498,0.202 -0.705,0.374 -0.228,0.184 -0.422,0.449 -0.584,0.794 -0.161,0.346 -0.242,0.798 -0.242,1.36 v 6.62 h -3.13 v -11.4 z"
         id="path257" />
      <path
         d="m 0.936,0.732 v 30.5 h 2.19 v 0.732 h -3.04 v -32 h 3.03 v 0.732 z"
         id="path259" />
    </g>
  </g>
</svg>
