<?xml version="1.0" encoding="UTF-8" standalone="no"?>
<svg
   inkscape:export-ydpi="25.026072"
   inkscape:export-xdpi="25.026072"
   width="245.50398"
   height="245.50398"
   id="svg11300"
   sodipodi:version="0.32"
   inkscape:version="1.1.1 (eb90963e84, 2021-10-02)"
   sodipodi:docname="software-updater.svg"
   inkscape:output_extension="org.inkscape.output.svg.inkscape"
   version="1.0"
   style="display:inline;enable-background:new"
   inkscape:export-filename="..\Desktop\BudgieWelcome-Source\data\img\applications\system-software-update.png"
   xmlns:inkscape="http://www.inkscape.org/namespaces/inkscape"
   xmlns:sodipodi="http://sodipodi.sourceforge.net/DTD/sodipodi-0.dtd"
   xmlns:xlink="http://www.w3.org/1999/xlink"
   xmlns="http://www.w3.org/2000/svg"
   xmlns:svg="http://www.w3.org/2000/svg"
   xmlns:rdf="http://www.w3.org/1999/02/22-rdf-syntax-ns#"
   xmlns:cc="http://creativecommons.org/ns#"
   xmlns:dc="http://purl.org/dc/elements/1.1/">
  <title
     id="title3004">Yaru Icon Theme Template</title>
  <sodipodi:namedview
     stroke="#ef2929"
     fill="#f57900"
     id="base"
     pagecolor="#ffffff"
     bordercolor="#000000"
     borderopacity="0.25490196"
     inkscape:pageopacity="0"
     inkscape:pageshadow="2"
     inkscape:zoom="2"
     inkscape:cx="459.25"
     inkscape:cy="110.75"
     inkscape:current-layer="layer6"
     showgrid="false"
     inkscape:grid-bbox="true"
     inkscape:document-units="px"
     inkscape:showpageshadow="false"
     inkscape:window-width="1920"
     inkscape:window-height="1016"
     inkscape:window-x="0"
     inkscape:window-y="27"
     width="400px"
     height="300px"
     inkscape:snap-nodes="true"
     inkscape:snap-bbox="true"
     gridtolerance="10000"
     inkscape:object-nodes="true"
     inkscape:snap-grids="true"
     showguides="true"
     inkscape:guide-bbox="true"
     inkscape:window-maximized="1"
     inkscape:bbox-paths="true"
     inkscape:snap-bbox-midpoints="true"
     inkscape:snap-global="true"
     inkscape:object-paths="true"
     inkscape:snap-intersection-paths="true"
     inkscape:snap-smooth-nodes="true"
     inkscape:pagecheckerboard="false"
     showborder="false"
     inkscape:document-rotation="0"
     inkscape:deskcolor="#d1d1d1">
    <inkscape:grid
       spacingy="1"
       spacingx="1"
       id="grid5883"
       type="xygrid"
       enabled="true"
       visible="false"
       empspacing="4"
       snapvisiblegridlinesonly="true"
       originx="-29.247999"
       originy="-34.248001"
       units="px" />
    <inkscape:grid
       type="xygrid"
       id="grid11592"
       empspacing="2"
       visible="false"
       enabled="false"
       spacingx="0.5"
       spacingy="0.5"
       color="#ff0000"
       opacity="0.1254902"
       empcolor="#ff0000"
       empopacity="0.25098039"
       snapvisiblegridlinesonly="true"
       originx="-29.247999"
       originy="-34.248001"
       units="px" />
  </sodipodi:namedview>
  <defs
     id="defs3">
    <filter
       inkscape:collect="always"
       style="color-interpolation-filters:sRGB"
       id="filter48952"
       x="-0.048"
       width="1.096"
       y="-0.048"
       height="1.096">
      <feGaussianBlur
         inkscape:collect="always"
         stdDeviation="4.48"
         id="feGaussianBlur48954" />
    </filter>
    <filter
       inkscape:collect="always"
       style="color-interpolation-filters:sRGB"
       id="filter48967"
       x="-0.012"
       width="1.024"
       y="-0.012"
       height="1.024">
      <feGaussianBlur
         inkscape:collect="always"
         stdDeviation="1.12"
         id="feGaussianBlur48969" />
    </filter>
    <linearGradient
       inkscape:collect="always"
       xlink:href="#linearGradient980"
       id="linearGradient982"
       x1="152"
       y1="124"
       x2="152"
       y2="236"
       gradientUnits="userSpaceOnUse" />
    <linearGradient
       inkscape:collect="always"
       id="linearGradient980">
      <stop
         style="stop-color:#000000;stop-opacity:1;"
         offset="0"
         id="stop976" />
      <stop
         style="stop-color:#000000;stop-opacity:0;"
         offset="1"
         id="stop978" />
    </linearGradient>
    <filter
       inkscape:collect="always"
       style="color-interpolation-filters:sRGB"
       id="filter1003"
       x="-0.088409092"
       width="1.1768182"
       y="-0.088409094"
       height="1.1768182">
      <feGaussianBlur
         inkscape:collect="always"
         stdDeviation="4.4"
         id="feGaussianBlur1005" />
    </filter>
    <filter
       inkscape:collect="always"
       style="color-interpolation-filters:sRGB"
       id="filter1066"
       x="-0.0070588236"
       width="1.0141176"
       y="-0.040000001"
       height="1.08">
      <feGaussianBlur
         inkscape:collect="always"
         stdDeviation="0.4"
         id="feGaussianBlur1068" />
    </filter>
    <filter
       inkscape:collect="always"
       style="color-interpolation-filters:sRGB"
       id="filter1062-3"
       x="-0.012910164"
       width="1.0258203"
       y="-0.013017735"
       height="1.0260355">
      <feGaussianBlur
         inkscape:collect="always"
         stdDeviation="0.67258301"
         id="feGaussianBlur1064-6" />
    </filter>
  </defs>
  <metadata
     id="metadata4">
    <rdf:RDF>
      <cc:Work
         rdf:about="">
        <dc:format>image/svg+xml</dc:format>
        <dc:type
           rdf:resource="http://purl.org/dc/dcmitype/StillImage" />
        <dc:creator>
          <cc:Agent>
            <dc:title>Yaru Team, based on the Suru template by Sam Hewitt and original Suru designs by Matthieu James</dc:title>
          </cc:Agent>
        </dc:creator>
        <dc:source />
        <cc:license
           rdf:resource="http://creativecommons.org/licenses/by-sa/4.0/" />
        <dc:title>Yaru Icon Theme Template</dc:title>
        <dc:subject>
          <rdf:Bag />
        </dc:subject>
        <dc:date />
        <dc:rights>
          <cc:Agent>
            <dc:title />
          </cc:Agent>
        </dc:rights>
        <dc:publisher>
          <cc:Agent>
            <dc:title />
          </cc:Agent>
        </dc:publisher>
        <dc:identifier />
        <dc:relation />
        <dc:language />
        <dc:coverage />
        <dc:description />
        <dc:contributor>
          <cc:Agent>
            <dc:title />
          </cc:Agent>
        </dc:contributor>
      </cc:Work>
      <cc:Work
         rdf:about="">
        <dc:format>image/svg+xml</dc:format>
        <dc:type
           rdf:resource="http://purl.org/dc/dcmitype/StillImage" />
      </cc:Work>
      <cc:License
         rdf:about="http://creativecommons.org/licenses/by-sa/4.0/">
        <cc:permits
           rdf:resource="http://creativecommons.org/ns#Reproduction" />
        <cc:permits
           rdf:resource="http://creativecommons.org/ns#Distribution" />
        <cc:requires
           rdf:resource="http://creativecommons.org/ns#Notice" />
        <cc:requires
           rdf:resource="http://creativecommons.org/ns#Attribution" />
        <cc:permits
           rdf:resource="http://creativecommons.org/ns#DerivativeWorks" />
        <cc:requires
           rdf:resource="http://creativecommons.org/ns#ShareAlike" />
      </cc:License>
    </rdf:RDF>
  </metadata>
  <g
     style="display:inline"
     inkscape:groupmode="layer"
     inkscape:label="Icon"
     id="layer1"
     transform="translate(-29.247999,-34.248001)">
    <g
       style="display:none"
       inkscape:label="Baseplate"
       id="layer7"
       inkscape:groupmode="layer">
      <rect
         style="display:inline;overflow:visible;visibility:visible;fill:#cdcdcd;fill-opacity:1;fill-rule:nonzero;stroke:none;stroke-width:2;marker:none;enable-background:accumulate"
         id="rect3951"
         width="256"
         height="256"
         x="24"
         y="28"
         inkscape:label="48x48" />
    </g>
    <g
       inkscape:groupmode="layer"
       id="layer8"
       inkscape:label="Backgrounds"
       style="display:inline">
      <circle
         style="display:inline;opacity:0.1;fill:#000000;fill-opacity:1;stroke:none;stroke-width:1;stroke-linecap:round;stroke-linejoin:round;stroke-miterlimit:4;stroke-dasharray:none;stroke-opacity:1;filter:url(#filter48967);enable-background:new"
         id="path11042-4"
         r="112"
         cy="157"
         cx="152" />
      <circle
         style="display:inline;opacity:0.2;fill:#000000;fill-opacity:1;stroke:none;stroke-width:1;stroke-linecap:round;stroke-linejoin:round;stroke-miterlimit:4;stroke-dasharray:none;stroke-opacity:1;filter:url(#filter48952);enable-background:new"
         id="path11042-9"
         r="112"
         cy="157"
         cx="152" />
      <circle
         style="color:#000000;display:inline;overflow:visible;visibility:visible;opacity:1;fill:#5d5d5d;fill-opacity:1;fill-rule:nonzero;stroke:none;stroke-width:3.82609;stroke-linecap:butt;stroke-linejoin:miter;stroke-miterlimit:4;stroke-dasharray:11.4783, 11.4783;stroke-dashoffset:0;stroke-opacity:1;marker:none;enable-background:accumulate"
         id="path4238"
         cx="152"
         cy="-155.99997"
         transform="scale(1,-1)"
         r="88"
         clip-path="none" />
      <path
         style="display:inline;opacity:1;fill:#4d4d4d;fill-opacity:1;stroke:none;stroke-width:1;stroke-linecap:round;stroke-linejoin:round;stroke-miterlimit:4;stroke-dasharray:none;stroke-opacity:1;enable-background:new"
         d="m 145.29102,44.238281 a 112,112 0 0 0 -1.81641,0.115235 c 0.60441,-0.04739 1.21067,-0.07763 1.81641,-0.115235 z m -11.45508,1.285157 a 112,112 0 0 0 -2.37305,0.441406 c 0.79077,-0.149254 1.5786,-0.309135 2.37305,-0.441406 z m -10.06836,2.171874 a 112,112 0 0 0 -3.19336,0.873047 c 1.05841,-0.311886 2.12576,-0.592463 3.19336,-0.873047 z m -9.81446,3.074219 a 112,112 0 0 0 -5.18945,2.029297 c 1.71242,-0.721205 3.44424,-1.39448 5.18945,-2.029297 z m -10.18164,4.263672 a 112,112 0 0 0 -6.44726,3.373047 c 2.11688,-1.190912 4.26277,-2.32464 6.44726,-3.373047 z m -8.89062,4.775391 a 112,112 0 0 0 -7.05274,4.5625 c 2.29695,-1.61444 4.65241,-3.131439 7.05274,-4.5625 z M 87.47461,64.625 A 112,112 0 0 0 63.58203,87.474609 C 64.99745,85.654011 66.46665,83.869507 68,82.130859 V 92 v 8 h 8 8.16797 C 71.14492,115.75751 64.0141,135.55743 64,156 c 0,48.60106 39.39894,88 88,88 18.04714,-0.0379 35.64627,-5.62354 50.41211,-16 H 220 v 16.81836 c -1.14257,0.87772 -2.30265,1.72609 -3.47461,2.55664 a 112,112 0 0 0 23.89258,-22.84961 c -1.41542,1.8206 -2.88462,3.6051 -4.41797,5.34375 V 220 212 h -8 -8.16797 C 232.85508,196.24249 239.9859,176.44257 240,156 240,107.39894 200.60106,68 152,68 133.95286,68.03786 116.35373,73.62354 101.58789,84 H 84 V 67.181641 c 1.14257,-0.877723 2.30265,-1.726095 3.47461,-2.556641 z m 136.5918,5.648438 c 0.0566,0.04764 0.11341,0.09483 0.16992,0.142578 a 112,112 0 0 0 -0.16992,-0.142578 z m 8.16015,7.585937 c 0.0697,0.07155 0.13948,0.143109 0.20899,0.214844 a 112,112 0 0 0 -0.20899,-0.214844 z m 7.4668,8.474609 c 0.0213,0.02681 0.0431,0.05325 0.0644,0.08008 a 112,112 0 0 0 -0.0644,-0.08008 z M 62.18164,89.31445 a 112,112 0 0 0 -4.44336,6.41993 c 1.40285,-2.18653 2.88499,-4.32769 4.44336,-6.41993 z m -6.82226,10.30078 a 112,112 0 0 0 -2.80079,5.07227 c 0.88788,-1.71368 1.82373,-3.40386 2.80079,-5.07227 z m -5.51172,10.68555 a 112,112 0 0 0 -1.66016,3.87695 c 0.5277,-1.30331 1.08354,-2.59395 1.66016,-3.87695 z m -4.3086,11.13086 a 112,112 0 0 0 -0.91015,2.93555 c 0.29132,-0.98221 0.59212,-1.96209 0.91015,-2.93555 z m -3.03125,11.24024 a 112,112 0 0 0 -0.42968,2.09374 c 0.1365,-0.69958 0.27996,-1.39741 0.42968,-2.09374 z m -1.85547,11.52343 a 112,112 0 0 0 -0.12109,1.16602 c 0.0379,-0.38925 0.0792,-0.77745 0.12109,-1.16602 z m 223.06446,3.86328 c 0.001,0.0202 0.002,0.0404 0.004,0.0605 a 112,112 0 0 0 -0.004,-0.0605 z M 40.2793,163.88086 a 112,112 0 0 0 0.004,0.0605 c -10e-4,-0.0202 -0.002,-0.0404 -0.004,-0.0605 z m 223.18945,2.75781 c -0.0379,0.38925 -0.0792,0.77745 -0.12109,1.16602 a 112,112 0 0 0 0.12109,-1.16602 z m -1.54883,10.60156 c -0.13537,0.69356 -0.27547,1.38582 -0.42383,2.07618 a 112,112 0 0 0 0.42383,-2.07618 z m -2.54883,10.39454 c -0.29116,0.98159 -0.59231,1.96072 -0.91015,2.93359 a 112,112 0 0 0 0.91015,-2.93359 z m -3.55859,10.1875 c -0.5277,1.30331 -1.08354,2.59395 -1.66016,3.87695 a 112,112 0 0 0 1.66016,-3.87695 z m -4.37109,9.49023 c -0.88788,1.71368 -1.82373,3.40386 -2.80079,5.07227 a 112,112 0 0 0 2.80079,-5.07227 z m -5.17969,8.95312 c -1.40285,2.18653 -2.88499,4.32769 -4.44336,6.41993 a 112,112 0 0 0 4.44336,-6.41993 z m -182.01953,9.32032 a 112,112 0 0 0 0.0645,0.0801 c -0.0213,-0.0268 -0.0431,-0.0532 -0.0645,-0.0801 z m 7.32226,8.33984 a 112,112 0 0 0 0.20899,0.21484 c -0.0697,-0.0715 -0.13948,-0.1431 -0.20899,-0.21484 z m 8.19922,7.6582 a 112,112 0 0 0 0.16992,0.14258 c -0.0566,-0.0476 -0.11341,-0.0948 -0.16992,-0.14258 z m 136.40821,6.04493 c -2.29695,1.61444 -4.65242,3.13144 -7.05274,4.5625 a 112,112 0 0 0 7.05274,-4.5625 z m -9.4961,5.96484 c -2.11688,1.19091 -4.26277,2.32464 -6.44726,3.37305 a 112,112 0 0 0 6.44726,-3.37305 z m -11.43945,5.60742 c -1.71242,0.72121 -3.44424,1.39448 -5.18945,2.0293 a 112,112 0 0 0 5.18945,-2.0293 z m -11.81055,4.23047 c -1.05841,0.31189 -2.12576,0.59246 -3.19336,0.87305 a 112,112 0 0 0 3.19336,-0.87305 z m -10.88867,2.60352 c -0.79077,0.14925 -1.5786,0.30913 -2.37305,0.4414 a 112,112 0 0 0 2.37305,-0.4414 z m -12.01172,1.61132 c -0.60441,0.0474 -1.21067,0.0776 -1.81641,0.11524 a 112,112 0 0 0 1.81641,-0.11524 z"
         id="path11042"
         clip-path="none"
         inkscape:connector-curvature="0" />
      <path
         style="color:#000000;display:inline;overflow:visible;visibility:visible;opacity:0.2;fill:none;fill-opacity:1;fill-rule:nonzero;stroke:url(#linearGradient982);stroke-width:10;stroke-linecap:butt;stroke-linejoin:round;stroke-miterlimit:4;stroke-dasharray:none;stroke-dashoffset:0;stroke-opacity:1;marker:none;filter:url(#filter1003);enable-background:accumulate"
         d="m 152,69.999994 c -48.60106,0 -88,39.398936 -88,87.999996 0,48.60106 39.39894,88 88,88 48.60106,0 88,-39.39894 88,-88 0,-48.60106 -39.39894,-87.999996 -88,-87.999996 z"
         id="path962"
         clip-path="none"
         inkscape:connector-curvature="0"
         sodipodi:nodetypes="sssss" />
      <path
         style="display:inline;opacity:1;fill:#ebebeb;fill-opacity:1;stroke:none;stroke-width:1;stroke-linecap:round;stroke-linejoin:round;stroke-miterlimit:4;stroke-dasharray:none;stroke-opacity:1;enable-background:new"
         d="m 152,44 c -24.59727,0.0505 -48.49386,8.19703 -68,23.18164 V 84 h 17.58789 C 116.35373,73.62354 133.95286,68.03786 152,68 c 48.60106,0 88,39.39894 88,88 -0.0141,20.44257 -7.14492,40.24249 -20.16797,56 H 228 h 8 v 8 9.86914 C 253.99555,209.46422 263.94847,183.20658 264,156 264,94.14411 213.85589,44 152,44 Z M 68,82.13086 C 50.00445,102.53578 40.05153,128.79342 40,156 c 0,61.85589 50.14411,112 112,112 24.59727,-0.0505 48.49386,-8.19703 68,-23.18164 V 228 H 202.41211 C 187.64627,238.37646 170.04714,243.96214 152,244 103.39894,244 64,204.60106 64,156 64.0141,135.55743 71.14492,115.75751 84.16797,100 H 76 68 v -8 z"
         id="path11042-9-8"
         inkscape:connector-curvature="0"
         sodipodi:nodetypes="cccccccccccccccccccccccccc"
         clip-path="none" />
      <path
         style="display:inline;opacity:0.3;fill:#ffffff;fill-opacity:1;stroke:none;stroke-width:1;stroke-linecap:round;stroke-linejoin:round;stroke-miterlimit:4;stroke-dasharray:none;stroke-opacity:1;enable-background:new"
         d="M 152,44 A 112,112 0 0 0 40,156 112,112 0 0 0 40.04102,157.16992 112,112 0 0 1 152,46 112,112 0 0 1 263.95898,156.83008 112,112 0 0 0 263.99998,156 a 112,112 0 0 0 -112,-112 z"
         id="path11042-1-6"
         inkscape:connector-curvature="0"
         clip-path="none" />
      <path
         inkscape:connector-curvature="0"
         style="display:inline;opacity:0.2;fill:#000000;fill-opacity:1;stroke:none;stroke-width:1;stroke-linecap:round;stroke-linejoin:round;stroke-miterlimit:4;stroke-dasharray:none;stroke-opacity:1;enable-background:new"
         d="M 152,268 A 112,112 0 0 1 40,156 112,112 0 0 1 40.04102,154.83008 112,112 0 0 0 152,266 112,112 0 0 0 263.95898,155.16992 a 112,112 0 0 1 0.041,0.83008 112,112 0 0 1 -112,112 z"
         id="path11042-1-7-2"
         clip-path="none" />
      <circle
         style="opacity:0.1;vector-effect:none;fill:#babeb4;fill-opacity:1;stroke:none;stroke-width:4;stroke-linecap:butt;stroke-linejoin:round;stroke-miterlimit:4;stroke-dasharray:none;stroke-dashoffset:6.6;stroke-opacity:1"
         id="path5664"
         cx="152"
         cy="156"
         r="88" />
    </g>
    <g
       inkscape:groupmode="layer"
       id="layer6"
       inkscape:label="Pictograms and folds"
       style="display:inline">
      <path
         style="display:inline;opacity:0.3;fill:#ffffff;fill-opacity:1;stroke:none;stroke-width:1;stroke-linecap:round;stroke-linejoin:round;stroke-miterlimit:4;stroke-dasharray:none;stroke-opacity:1;enable-background:new"
         d="M 239.98436,156.72852 C 239.80315,176.9121 232.70001,196.4301 219.83201,212 h 1.58008 c 12.0087,-15.41844 18.57438,-34.40846 18.58789,-54 0,-0.42507 -0.01,-0.84784 -0.0156,-1.27148 z"
         id="path19624"
         inkscape:connector-curvature="0"
         clip-path="none" />
      <path
         style="display:inline;opacity:0.3;fill:#ffffff;fill-opacity:1;stroke:none;stroke-width:1;stroke-linecap:round;stroke-linejoin:round;stroke-miterlimit:4;stroke-dasharray:none;stroke-opacity:1;enable-background:new"
         d="M 64.0156,157.27148 C 64.0136,157.51469 64.0001,157.75661 64,158 c 0,48.60106 39.39894,88 88,88 18.04714,-0.0379 35.64627,-5.62354 50.41211,-16 H 220 v -2 H 202.41211 C 187.64627,238.37646 170.04714,243.96214 152,244 103.82401,244 64.69648,205.28562 64.01562,157.27148 Z"
         id="path11042-9-8-9"
         inkscape:connector-curvature="0"
         clip-path="none" />
      <path
         style="display:inline;opacity:0.1;fill:#ffffff;fill-opacity:1;stroke:none;stroke-width:10.6667;stroke-linecap:round;stroke-linejoin:round;stroke-miterlimit:4;stroke-dasharray:none;stroke-opacity:1;enable-background:new"
         d="M 40,165.6959 C 45.28651,223.60726 93.82538,267.95298 151.97754,268 210.14691,267.9762 258.7119,223.62441 264,165.6959 Z"
         id="rect12119"
         inkscape:connector-curvature="0"
         sodipodi:nodetypes="cccc"
         clip-path="none" />
      <path
         style="font-style:normal;font-variant:normal;font-weight:300;font-stretch:normal;font-size:196.248px;line-height:1000%;font-family:Ubuntu;-inkscape-font-specification:'Ubuntu Light';letter-spacing:0px;word-spacing:0px;display:inline;opacity:0.1;fill:#000000;fill-opacity:1;stroke:none;stroke-width:4.9062px;stroke-linecap:butt;stroke-linejoin:miter;stroke-opacity:1;filter:url(#filter1062-3);enable-background:new"
         d="m 140.49607,84.00001 c -4.70996,9.81241 -9.22355,19.756 -13.54101,29.83008 -4.31746,9.94324 -8.7021,20.41049 -13.15039,31.40039 -1.66494,4.23801 -3.36668,8.65932 -5.07031,13.0918 -1.04969,2.39777 -2.22981,5.26835 -4.07813,10.23242 -3.0972,8.22972 -6.63179,17.55233 -10.08789,26.67969 -1.25915,3.18508 -2.64003,6.75373 -4.82617,12.76562 h 14.71875 11.10156 l 12.36329,-34.73633 24.33202,-1.05859 24.334,1.05859 12.36327,34.73633 h 11.10156 14.71875 c -2.18614,-6.01189 -3.56702,-9.58054 -4.82616,-12.76562 -3.45609,-9.12736 -6.9907,-18.44997 -10.08789,-26.67969 -1.84833,-4.96407 -3.02845,-7.83465 -4.07813,-10.23242 -1.70363,-4.43248 -3.40538,-8.85379 -5.07032,-13.0918 -4.44828,-10.9899 -8.83292,-21.45715 -13.15038,-31.40039 -4.31747,-10.07409 -8.83107,-20.01767 -13.54102,-29.83008 h -0.39063 -11.11328 -0.51758 -11.11328 z m 11.76172,27.03711 c 0.0856,0.19974 0.17424,0.39587 0.25977,0.5957 v 0.15235 c 3.59305,7.98261 7.06728,16.24447 10.41015,24.81054 4.0558,10.59741 4.11217,9.58637 8.16797,20.96875 l -18.83789,0.67969 -18.83593,-0.67969 c 4.0558,-11.38238 4.11216,-10.37134 8.16796,-20.96875 3.34287,-8.56607 6.81711,-16.82793 10.41016,-24.81054 v -0.15235 c 0.0854,-0.19959 0.17233,-0.3962 0.25781,-0.5957 z"
         id="path1052-7"
         inkscape:connector-curvature="0"
         clip-path="none" />
      <path
         style="font-style:normal;font-variant:normal;font-weight:300;font-stretch:normal;font-size:196.248px;line-height:1000%;font-family:Ubuntu;-inkscape-font-specification:'Ubuntu Light';letter-spacing:0px;word-spacing:0px;display:inline;fill:#ebebeb;fill-opacity:1;stroke:none;stroke-width:4.9062px;stroke-linecap:butt;stroke-linejoin:miter;stroke-opacity:1;enable-background:new"
         d="m 140.49607,82.00001 c -4.70996,9.81241 -9.22355,19.756 -13.54101,29.83008 -4.31746,9.94324 -8.7021,20.4105 -13.15039,31.40039 -1.66494,4.23801 -3.36668,8.65932 -5.07031,13.0918 -1.04969,2.39777 -2.22981,5.26836 -4.07813,10.23242 -3.0972,8.22972 -6.6318,17.55233 -10.08789,26.67969 -1.25915,3.18508 -2.64003,6.75373 -4.82617,12.76562 h 14.71875 11.10156 l 12.36329,-34.73633 24.33202,-1.05859 24.334,1.05859 12.36327,34.73633 h 11.10156 14.71875 c -2.18614,-6.01189 -3.56702,-9.58054 -4.82616,-12.76562 -3.45609,-9.12736 -6.9907,-18.44997 -10.08789,-26.67969 -1.84833,-4.96406 -3.02845,-7.83465 -4.07813,-10.23242 -1.70363,-4.43248 -3.40538,-8.85379 -5.07032,-13.0918 -4.44828,-10.98989 -8.83292,-21.45715 -13.15038,-31.40039 -4.31747,-10.07409 -8.83107,-20.01767 -13.54102,-29.83008 h -0.39063 -11.11328 -0.51758 -11.11328 z m 11.76172,27.03711 c 0.0856,0.19974 0.17424,0.39587 0.25977,0.5957 v 0.15235 c 3.59305,7.98261 7.06728,16.24447 10.41015,24.81054 4.0558,10.59741 4.11217,9.58635 8.16797,20.96875 l -18.83789,0.67969 -18.83593,-0.67969 c 4.0558,-11.3824 4.11216,-10.37134 8.16796,-20.96875 3.34287,-8.56607 6.81711,-16.82793 10.41016,-24.81054 v -0.15235 c 0.0854,-0.19959 0.17233,-0.3962 0.25781,-0.5957 z"
         id="text954-5"
         inkscape:connector-curvature="0"
         clip-path="none" />
      <rect
         ry="12"
         y="156"
         x="83.999992"
         height="24"
         width="136"
         id="rect1040"
         style="color:#000000;display:inline;overflow:visible;visibility:visible;opacity:0.1;fill:#000000;fill-opacity:1;fill-rule:nonzero;stroke:none;stroke-width:2;stroke-linecap:butt;stroke-linejoin:miter;stroke-miterlimit:4;stroke-dasharray:2, 2;stroke-dashoffset:0;stroke-opacity:1;marker:none;filter:url(#filter1066);enable-background:accumulate"
         rx="12"
         clip-path="none" />
      <path
         style="font-style:normal;font-variant:normal;font-weight:300;font-stretch:normal;font-size:196.248px;line-height:1000%;font-family:Ubuntu;-inkscape-font-specification:'Ubuntu Light';letter-spacing:0px;word-spacing:0px;display:inline;opacity:0.1;fill:#161616;fill-opacity:1;stroke:none;stroke-width:4.9062px;stroke-linecap:butt;stroke-linejoin:miter;stroke-opacity:1;enable-background:new"
         d="m 163.75779,82.34962 -11.05077,27.86523 c 3.52501,7.85046 6.93725,15.96708 10.22069,24.38086 4.0558,10.59741 4.11217,9.58635 8.16797,20.96875 l -6.35351,0.22852 4.40625,15.14648 7.44337,0.32422 12.36327,34.73633 h 11.10156 14.71875 c -2.18614,-6.01189 -3.56702,-9.58054 -4.82616,-12.76562 -3.45609,-9.12737 -6.9907,-18.44997 -10.08789,-26.67969 -1.84833,-4.96406 -3.02845,-7.83465 -4.07813,-10.23242 -1.70363,-4.43248 -3.40538,-8.85379 -5.07032,-13.0918 -4.44828,-10.98989 -8.83292,-21.45715 -13.15038,-31.40039 -3.113,-7.26369 -6.33141,-14.45625 -9.64844,-21.58399 z"
         id="path1693"
         inkscape:connector-curvature="0"
         clip-path="none" />
      <rect
         rx="12"
         style="color:#000000;display:inline;overflow:visible;visibility:visible;opacity:1;fill:#ebebeb;fill-opacity:1;fill-rule:nonzero;stroke:none;stroke-width:2;stroke-linecap:butt;stroke-linejoin:miter;stroke-miterlimit:4;stroke-dasharray:2, 2;stroke-dashoffset:0;stroke-opacity:1;marker:none;enable-background:accumulate"
         id="rect4270"
         width="136"
         height="24"
         x="83.999992"
         y="154"
         ry="12"
         clip-path="none" />
      <path
         style="color:#000000;display:inline;overflow:visible;visibility:visible;opacity:0.2;fill:#161616;fill-opacity:1;fill-rule:nonzero;stroke:none;stroke-width:2;stroke-linecap:butt;stroke-linejoin:miter;stroke-miterlimit:4;stroke-dasharray:2, 2;stroke-dashoffset:0;stroke-opacity:1;marker:none;enable-background:accumulate"
         d="m 95.99998,161.99971 c -2.216,0 -4,1.784 -4,4 0,2.216 1.784,4 4,4 h 39.625 32.375 40.375 c 2.00825,0 3.625,-1.61675 3.625,-3.625 v -0.75 c 0,-2.00825 -1.61675,-3.625 -3.625,-3.625 h -40.375 -32.375 z"
         id="rect4272"
         inkscape:connector-curvature="0"
         clip-path="none" />
      <rect
         style="color:#000000;display:inline;overflow:visible;visibility:visible;opacity:1;fill:#e95420;fill-opacity:1;fill-rule:nonzero;stroke:none;stroke-width:2;stroke-linecap:butt;stroke-linejoin:miter;stroke-miterlimit:4;stroke-dasharray:2, 2;stroke-dashoffset:0;stroke-opacity:1;marker:none;enable-background:accumulate"
         id="rect4301"
         width="80"
         height="8"
         x="91.999977"
         y="162"
         ry="4"
         rx="4"
         clip-path="none" />
      <path
         style="display:inline;opacity:0.3;fill:#ffffff;fill-opacity:1;stroke:none;stroke-width:1;stroke-linecap:round;stroke-linejoin:round;stroke-miterlimit:4;stroke-dasharray:none;stroke-opacity:1;enable-background:new"
         d="m 67.99998,100 v 2 h 8 6.58789 c 0.52164,-0.66975 1.03792,-1.34401 1.58007,-2 h -8.16796 z"
         id="path19626"
         inkscape:connector-curvature="0"
         clip-path="none" />
    </g>
    <g
       inkscape:groupmode="layer"
       id="layer2"
       inkscape:label="Borders"
       style="display:inline">
      <path
         inkscape:connector-curvature="0"
         style="display:inline;opacity:0.2;fill:#000000;fill-opacity:1;stroke:none;stroke-width:1;stroke-linecap:round;stroke-linejoin:round;stroke-miterlimit:4;stroke-dasharray:none;stroke-opacity:1;enable-background:new"
         d="m 152,267.99999 a 112,112 0 0 1 -112,-112 112,112 0 0 1 0.04102,-1.16992 A 112,112 0 0 0 152,265.99999 112,112 0 0 0 263.95898,155.16991 a 112,112 0 0 1 0.041,0.83008 112,112 0 0 1 -112,112 z"
         id="path11042-1-7" />
      <path
         style="display:inline;opacity:0.3;fill:#ffffff;fill-opacity:1;stroke:none;stroke-width:1;stroke-linecap:round;stroke-linejoin:round;stroke-miterlimit:4;stroke-dasharray:none;stroke-opacity:1;enable-background:new"
         d="M 152,43.999994 A 112,112 0 0 0 40,155.99999 112,112 0 0 0 40.04102,157.16991 112,112 0 0 1 152,45.999994 112,112 0 0 1 263.95898,156.83007 a 112,112 0 0 0 0.041,-0.83008 112,112 0 0 0 -112,-111.999996 z"
         id="path11042-1"
         inkscape:connector-curvature="0" />
    </g>
  </g>
</svg>
