<?xml version="1.0" encoding="UTF-8" standalone="no"?>
<!-- Created with Inkscape (http://www.inkscape.org/) -->

<svg
   width="149.28317mm"
   height="129.07991mm"
   viewBox="0 0 149.28317 129.07991"
   version="1.1"
   id="svg1"
   inkscape:export-filename="symbolicbirdwhite.svg"
   inkscape:export-xdpi="96"
   inkscape:export-ydpi="96"
   sodipodi:docname="menu-symbolicwhite.svg"
   inkscape:version="1.3 (0e150ed6c4, 2023-07-21)"
   xmlns:inkscape="http://www.inkscape.org/namespaces/inkscape"
   xmlns:sodipodi="http://sodipodi.sourceforge.net/DTD/sodipodi-0.dtd"
   xmlns="http://www.w3.org/2000/svg"
   xmlns:svg="http://www.w3.org/2000/svg">
  <sodipodi:namedview
     id="namedview1"
     pagecolor="#ffffff"
     bordercolor="#000000"
     borderopacity="0.25"
     inkscape:showpageshadow="2"
     inkscape:pageopacity="0.0"
     inkscape:pagecheckerboard="0"
     inkscape:deskcolor="#d1d1d1"
     inkscape:document-units="mm"
     inkscape:export-bgcolor="#10101000"
     inkscape:zoom="1.4627806"
     inkscape:cx="160.31112"
     inkscape:cy="246.44844"
     inkscape:window-width="1920"
     inkscape:window-height="1017"
     inkscape:window-x="-8"
     inkscape:window-y="-8"
     inkscape:window-maximized="1"
     inkscape:current-layer="layer1"
     showgrid="false" />
  <defs
     id="defs1">
    <filter
       style="color-interpolation-filters:sRGB"
       inkscape:label="Fast Crop"
       id="filter47"
       x="-0.0077041602"
       y="-0.0077039427"
       width="1.0154083"
       height="1.0154079"
       inkscape:auto-region="false"
       inkscape:menu="Fill and Transparency"
       inkscape:menu-tooltip="Does not filter but adds a filter region">
      <feBlend
         in2="BackgroundImage"
         mode="multiply"
         result="fbSourceGraphic"
         id="feBlend47" />
      <feColorMatrix
         result="fbSourceGraphicAlpha"
         in="fbSourceGraphic"
         values="0 0 0 -1 0 0 0 0 -1 0 0 0 0 -1 0 0 0 0 1 0"
         id="feColorMatrix134" />
      <feColorMatrix
         id="feColorMatrix136"
         type="saturate"
         values="1"
         in="fbSourceGraphic" />
    </filter>
    <filter
       inkscape:label="Fast Crop"
       inkscape:auto-region="false"
       inkscape:menu="Fill and Transparency"
       inkscape:menu-tooltip="Does not filter but adds a filter region"
       style="color-interpolation-filters:sRGB"
       id="filter132">
      <feColorMatrix
         type="saturate"
         values="1"
         id="feColorMatrix130" />
    </filter>
    <filter
       inkscape:label="Fast Crop"
       inkscape:auto-region="false"
       inkscape:menu="Fill and Transparency"
       inkscape:menu-tooltip="Does not filter but adds a filter region"
       style="color-interpolation-filters:sRGB"
       id="filter140">
      <feColorMatrix
         type="saturate"
         values="1"
         id="feColorMatrix138" />
    </filter>
    <filter
       inkscape:label="Fast Crop"
       inkscape:auto-region="false"
       inkscape:menu="Fill and Transparency"
       inkscape:menu-tooltip="Does not filter but adds a filter region"
       style="color-interpolation-filters:sRGB"
       id="filter144">
      <feColorMatrix
         type="saturate"
         values="1"
         id="feColorMatrix142" />
    </filter>
    <filter
       inkscape:label="Fast Crop"
       inkscape:auto-region="false"
       inkscape:menu="Fill and Transparency"
       inkscape:menu-tooltip="Does not filter but adds a filter region"
       style="color-interpolation-filters:sRGB"
       id="filter148">
      <feColorMatrix
         type="saturate"
         values="1"
         id="feColorMatrix146" />
    </filter>
    <filter
       inkscape:label="Fast Crop"
       inkscape:auto-region="false"
       inkscape:menu="Fill and Transparency"
       inkscape:menu-tooltip="Does not filter but adds a filter region"
       style="color-interpolation-filters:sRGB"
       id="filter132-3">
      <feColorMatrix
         type="saturate"
         values="1"
         id="feColorMatrix130-6" />
    </filter>
    <filter
       style="color-interpolation-filters:sRGB"
       inkscape:label="Fast Crop"
       id="filter47-7"
       x="-0.0077041602"
       y="-0.0077039427"
       width="1.0154083"
       height="1.0154079"
       inkscape:auto-region="false"
       inkscape:menu="Fill and Transparency"
       inkscape:menu-tooltip="Does not filter but adds a filter region">
      <feBlend
         in2="BackgroundImage"
         mode="multiply"
         result="fbSourceGraphic"
         id="feBlend47-5" />
      <feColorMatrix
         result="fbSourceGraphicAlpha"
         in="fbSourceGraphic"
         values="0 0 0 -1 0 0 0 0 -1 0 0 0 0 -1 0 0 0 0 1 0"
         id="feColorMatrix134-3" />
      <feColorMatrix
         id="feColorMatrix136-5"
         type="saturate"
         values="1"
         in="fbSourceGraphic" />
    </filter>
    <filter
       inkscape:label="Fast Crop"
       inkscape:auto-region="false"
       inkscape:menu="Fill and Transparency"
       inkscape:menu-tooltip="Does not filter but adds a filter region"
       style="color-interpolation-filters:sRGB"
       id="filter140-6">
      <feColorMatrix
         type="saturate"
         values="1"
         id="feColorMatrix138-2" />
    </filter>
    <filter
       inkscape:label="Fast Crop"
       inkscape:auto-region="false"
       inkscape:menu="Fill and Transparency"
       inkscape:menu-tooltip="Does not filter but adds a filter region"
       style="color-interpolation-filters:sRGB"
       id="filter144-9">
      <feColorMatrix
         type="saturate"
         values="1"
         id="feColorMatrix142-1" />
    </filter>
    <filter
       inkscape:label="Fast Crop"
       inkscape:auto-region="false"
       inkscape:menu="Fill and Transparency"
       inkscape:menu-tooltip="Does not filter but adds a filter region"
       style="color-interpolation-filters:sRGB"
       id="filter148-2">
      <feColorMatrix
         type="saturate"
         values="1"
         id="feColorMatrix146-7" />
    </filter>
  </defs>
  <g
     inkscape:label="Layer 1"
     inkscape:groupmode="layer"
     id="layer1"
     transform="translate(-17.493243,-73.59133)">
    <g
       id="g2"
       transform="matrix(0.1653377,0,0,0.1428403,14.249729,43.975899)">
      <path
         d="m 512.59947,593.93359 c -90.93,-119.74 -373.55,152.36 -304.35,205.83 94.76,73.21 491.01,39.99 304.35,-205.83 z"
         fill="#1c80aa"
         id="path1"
         style="fill:#ffffff;filter:url(#filter148-2);stroke-width:11.41348484;stroke-dasharray:none;fill-opacity:0.60000002;stroke:#000000;stroke-opacity:0.2" />
      <path
         d="m 772.18947,483.46359 24,50.19 a 21.7,21.7 0 0 0 37.73,2.5 l 31.57,-48.27 a 21.7,21.7 0 0 0 -17.41,-33.57 l -55.61,-1.92 a 21.7,21.7 0 0 0 -20.28,31.07 z"
         fill="#de7b56"
         id="path3"
         style="fill:#ffffff;stroke:#000000;stroke-opacity:0.2;filter:url(#filter144-9);stroke-width:11.41348484;stroke-dasharray:none;fill-opacity:0.60000002" />
      <path
         d="m 96.389472,857.45359 c 18.299998,86.91 221.859998,208.13001 477.999998,171.54001 272.07,-38.86001 396.52999,-528.42001 107.53,-706.74001 -161.25,-99.49 -326.71,5 -356.8,130.37 -41.2,171.54 88.65,300.65 -77.77,375.07 -86.91,38.91 -164.429998,-34.33 -150.959998,29.76 z"
         fill="#fdd2be"
         id="path4"
         style="fill:#ffffff;fill-opacity:0.60000002;stroke:#000000;stroke-opacity:0.2;filter:url(#filter140-6);stroke-width:11.41348484;stroke-dasharray:none" />
      <path
         d="m 631.05947,483.47359 m 32.45,0 a 32.450001,32.450001 0 1 1 -64.9,0 32.450001,32.450001 0 1 1 64.9,0 z"
         fill=""
         id="path5"
         style="fill:#ffffff;stroke:#000000;stroke-opacity:0.2;filter:url(#filter47-7);stroke-width:11.41348484;stroke-dasharray:none;fill-opacity:0.60000002" />
      <path
         d="m 484.67947,584.69359 c -137.48,-60.86 -253.34,314 -166.92,327.31 118.35,18.25 449.16,-202.39 166.92,-327.31 z m 288.94,164 c 9.34,-2.6 17.2,-12.8 23.94,-31 a 195,195 0 0 0 7.64,-27 7.2848153,7.2848153 0 0 0 -14.3,-2.79 c -4.79,24.5 -15,46.44 -21.91,46.93 -1.12,0.08 -11.43,-0.5 -27.23,-45.51 a 7.2804538,7.2804538 0 1 0 -13.74,4.82 c 13.61,38.77 27,56.31 42,55.22 a 18.18,18.18 0 0 0 3.6,-0.67 z m -117.5,60.36 c 9.63,1.14 20.77,-5.32 33.92,-19.63 a 195,195 0 0 0 17.32,-22.11 7.28198,7.28198 0 0 0 -12.17,-8 c -13.73,20.85 -31.53,37.27 -38.07,35.12 -1.07,-0.35 -10.38,-4.8 -7.93,-52.44 a 7.2846591,7.2846591 0 1 0 -14.55,-0.75 c -2.11,41 3.59,62.33 17.95,67 a 18.18,18.18 0 0 0 3.53,0.81 z m 79.3,69.35 c 9,-0.19 18.35,-7.55 28.56,-22.35 a 180.41,180.41 0 0 0 13,-22.49 6.74,6.74 0 0 0 -12.18,-5.77 c -9.9,20.88 -24.1,38.21 -30.37,37.08 -1,-0.18 -10.13,-3.07 -14,-47 a 6.7408704,6.7408704 0 1 0 -13.43,1.18 c 3.34,37.87 11.31,56.66 25.07,59.12 a 16.82,16.82 0 0 0 3.35,0.23 z m -127.78,62.58 c 9.26,2.85 21.38,-1.51 36.89,-13.22 a 195,195 0 0 0 21,-18.64 7.2815611,7.2815611 0 0 0 -10.53,-10.06 c -17.25,18.05 -37.7,31 -43.75,27.71 -1,-0.54 -9.35,-6.59 1.61,-53 a 7.2803062,7.2803062 0 1 0 -14.17,-3.35 c -9.44,40 -7.65,62 5.63,69.16 a 18.18,18.18 0 0 0 3.32,1.4 z"
         fill="#22b0c3"
         id="path6"
         style="fill:#ffffff;fill-opacity:0.60000002;stroke:#000000;stroke-opacity:0.2;filter:url(#filter132-3);stroke-width:11.41348484;stroke-dasharray:none" />
    </g>
  </g>
</svg>
