<?xml version="1.0" encoding="UTF-8" standalone="no"?>
<svg
   height="43"
   width="240"
   version="1.1"
   viewBox="0 0 240 43.000001"
   id="svg2"
   inkscape:version="1.3.2 (091e20e, 2023-11-25, custom)"
   sodipodi:docname="UbuntuBudgie-Wordmarkalt.svg"
   xml:space="preserve"
   inkscape:export-filename="..\..\Users\Nikola\Desktop\UbuntuBudgie-Wordmarkblack.png"
   inkscape:export-xdpi="917.82147"
   inkscape:export-ydpi="917.82147"
   xmlns:inkscape="http://www.inkscape.org/namespaces/inkscape"
   xmlns:sodipodi="http://sodipodi.sourceforge.net/DTD/sodipodi-0.dtd"
   xmlns="http://www.w3.org/2000/svg"
   xmlns:svg="http://www.w3.org/2000/svg"
   xmlns:rdf="http://www.w3.org/1999/02/22-rdf-syntax-ns#"
   xmlns:cc="http://creativecommons.org/ns#"
   xmlns:dc="http://purl.org/dc/elements/1.1/"><defs
     id="defs16" /><sodipodi:namedview
     pagecolor="#ffffff"
     bordercolor="#666666"
     borderopacity="1"
     objecttolerance="10"
     gridtolerance="10"
     guidetolerance="10"
     inkscape:pageopacity="0"
     inkscape:pageshadow="2"
     inkscape:window-width="1920"
     inkscape:window-height="1017"
     id="namedview14"
     showgrid="false"
     inkscape:zoom="3.3248449"
     inkscape:cx="94.590879"
     inkscape:cy="53.085183"
     inkscape:window-x="-8"
     inkscape:window-y="-8"
     inkscape:window-maximized="1"
     inkscape:current-layer="g1"
     showguides="true"
     inkscape:guide-bbox="true"
     inkscape:showpageshadow="2"
     inkscape:pagecheckerboard="0"
     inkscape:deskcolor="#d1d1d1"><sodipodi:guide
       position="161.41927,23.394098"
       orientation="0,1"
       id="guide4196"
       inkscape:locked="false" /><sodipodi:guide
       position="150.57292,-39.344619"
       orientation="0,1"
       id="guide4220"
       inkscape:locked="false" /><sodipodi:guide
       position="127.39149,58.910592"
       orientation="0,1"
       id="guide4252"
       inkscape:locked="false" /></sodipodi:namedview><title
     id="title4">budgie-remix Wordmark</title><metadata
     id="metadata6"><rdf:RDF><cc:Work
         rdf:about=""><dc:format>image/svg+xml</dc:format><dc:type
           rdf:resource="http://purl.org/dc/dcmitype/StillImage" /><dc:title>budgie-remix Wordmark</dc:title><dc:creator><cc:Agent><dc:title>HEXcube</dc:title></cc:Agent></dc:creator><cc:license
           rdf:resource="http://creativecommons.org/licenses/by-sa/4.0/" /><dc:source>Budgie Logo by Yuri Henrique</dc:source><dc:description>Official wordmark for budgie-remix</dc:description></cc:Work></rdf:RDF></metadata><g
     id="g4170"
     transform="translate(-6,0)"><path
       inkscape:connector-curvature="0"
       id="path4139"
       style="font-style:normal;font-variant:normal;font-weight:normal;font-stretch:normal;font-size:30px;line-height:125%;font-family:Ubuntu;-inkscape-font-specification:Ubuntu;letter-spacing:0px;word-spacing:0px;fill:#404552;fill-opacity:1"
       d="m 30.510001,30.910001 q -0.96,0.24 -2.55,0.51 -1.56,0.27 -3.63,0.27 -1.8,0 -3.03,-0.51 -1.23,-0.54 -1.98,-1.5 -0.75,-0.96 -1.08,-2.25 -0.33,-1.32 -0.33,-2.91 l 0,-8.76 2.79,0 0,8.16 q 0,2.85 0.9,4.08 0.9,1.23 3.03,1.23 0.45,0 0.93,-0.03 0.48,-0.03 0.9,-0.06 0.42,-0.06 0.75,-0.09 0.36,-0.06 0.51,-0.12 l 0,-13.17 2.79,0 0,15.15 z" /><path
       inkscape:connector-curvature="0"
       id="path4141"
       style="font-style:normal;font-variant:normal;font-weight:normal;font-stretch:normal;font-size:30px;line-height:125%;font-family:Ubuntu;-inkscape-font-specification:Ubuntu;letter-spacing:0px;word-spacing:0px;fill:#404552;fill-opacity:1"
       d="m 38.106563,16.450001 q 0.51,-0.33 1.53,-0.69 1.05,-0.36 2.4,-0.36 1.68,0 2.97,0.6 1.32,0.6 2.22,1.68 0.9,1.08 1.35,2.58 0.48,1.5 0.48,3.3 0,1.89 -0.57,3.42 -0.54,1.5 -1.56,2.55 -1.02,1.05 -2.46,1.62 -1.44,0.57 -3.24,0.57 -1.95,0 -3.45,-0.27 -1.5,-0.27 -2.46,-0.54 l 0,-22.35 2.79,-0.48 0,8.37 z m 0,12.48 q 0.42,0.12 1.17,0.24 0.78,0.09 1.92,0.09 2.25,0 3.6,-1.47 1.35,-1.5 1.35,-4.23 0,-1.2 -0.24,-2.25 -0.24,-1.05 -0.78,-1.8 -0.54,-0.78 -1.41,-1.2 -0.84,-0.45 -2.04,-0.45 -1.14,0 -2.1,0.39 -0.96,0.39 -1.47,0.81 l 0,9.87 z" /><path
       inkscape:connector-curvature="0"
       id="path4143"
       style="font-style:normal;font-variant:normal;font-weight:normal;font-stretch:normal;font-size:30px;line-height:125%;font-family:Ubuntu;-inkscape-font-specification:Ubuntu;letter-spacing:0px;word-spacing:0px;fill:#404552;fill-opacity:1"
       d="m 65.431876,30.910001 q -0.96,0.24 -2.55,0.51 -1.56,0.27 -3.63,0.27 -1.8,0 -3.03,-0.51 -1.23,-0.54 -1.98,-1.5 -0.75,-0.96 -1.08,-2.25 -0.33,-1.32 -0.33,-2.91 l 0,-8.76 2.79,0 0,8.16 q 0,2.85 0.9,4.08 0.9,1.23 3.03,1.23 0.45,0 0.93,-0.03 0.48,-0.03 0.9,-0.06 0.42,-0.06 0.75,-0.09 0.36,-0.06 0.51,-0.12 l 0,-13.17 2.79,0 0,15.15 z" /><path
       inkscape:connector-curvature="0"
       id="path4145"
       style="font-style:normal;font-variant:normal;font-weight:normal;font-stretch:normal;font-size:30px;line-height:125%;font-family:Ubuntu;-inkscape-font-specification:Ubuntu;letter-spacing:0px;word-spacing:0px;fill:#404552;fill-opacity:1"
       d="m 70.238438,16.210001 q 0.96,-0.24 2.55,-0.51 1.59,-0.27 3.66,-0.27 1.86,0 3.09,0.54 1.23,0.51 1.95,1.47 0.75,0.93 1.05,2.25 0.3,1.32 0.3,2.91 l 0,8.76 -2.79,0 0,-8.16 q 0,-1.44 -0.21,-2.46 -0.18,-1.02 -0.63,-1.65 -0.45,-0.63 -1.2,-0.9 -0.75,-0.3 -1.86,-0.3 -0.45,0 -0.93,0.03 -0.48,0.03 -0.93,0.09 -0.42,0.03 -0.78,0.09 -0.33,0.06 -0.48,0.09 l 0,13.17 -2.79,0 0,-15.15 z" /><path
       inkscape:connector-curvature="0"
       id="path4147"
       style="font-style:normal;font-variant:normal;font-weight:normal;font-stretch:normal;font-size:30px;line-height:125%;font-family:Ubuntu;-inkscape-font-specification:Ubuntu;letter-spacing:0px;word-spacing:0px;fill:#404552;fill-opacity:1"
       d="m 90.075001,15.760001 5.91,0 0,2.34 -5.91,0 0,7.2 q 0,1.17 0.18,1.95 0.18,0.75 0.54,1.2 0.36,0.42 0.9,0.6 0.54,0.18 1.26,0.18 1.26,0 2.01,-0.27 0.78,-0.3 1.08,-0.42 l 0.54,2.31 q -0.42,0.21 -1.47,0.51 -1.05,0.33 -2.4,0.33 -1.59,0 -2.64,-0.39 -1.02,-0.42 -1.65,-1.23 -0.63,-0.81 -0.9,-1.98 -0.24,-1.2 -0.24,-2.76 l 0,-13.92 2.79,-0.48 0,4.83 z" /><path
       inkscape:connector-curvature="0"
       id="path4149"
       style="font-style:normal;font-variant:normal;font-weight:normal;font-stretch:normal;font-size:30px;line-height:125%;font-family:Ubuntu;-inkscape-font-specification:Ubuntu;letter-spacing:0px;word-spacing:0px;fill:#404552;fill-opacity:1"
       d="m 111.95531,30.910001 q -0.96,0.24 -2.55,0.51 -1.56,0.27 -3.63,0.27 -1.8,0 -3.03,-0.51 -1.23,-0.54 -1.98,-1.5 -0.75,-0.96 -1.079997,-2.25 -0.33,-1.32 -0.33,-2.91 l 0,-8.76 2.789997,0 0,8.16 q 0,2.85 0.9,4.08 0.9,1.23 3.03,1.23 0.45,0 0.93,-0.03 0.48,-0.03 0.9,-0.06 0.42,-0.06 0.75,-0.09 0.36,-0.06 0.51,-0.12 l 0,-13.17 2.79,0 0,15.15 z" /><path
       inkscape:connector-curvature="0"
       id="path4151"
       style="font-style:normal;font-variant:normal;font-weight:bold;font-stretch:normal;font-size:medium;line-height:125%;font-family:'Clear Sans';-inkscape-font-specification:'Clear Sans Bold';letter-spacing:0px;word-spacing:0px;fill:#404552;fill-opacity:1"
       d="m 139.00055,25.485977 q 0,3.046875 -2.09473,4.467774 -2.09473,1.40625 -5.81543,1.40625 l -7.61719,0 0,-20.273438 7.16309,0 q 3.89648,0 5.58105,1.142578 1.68457,1.12793 1.68457,3.588867 0,1.889649 -0.92285,3.061524 -0.9082,1.171875 -2.85644,1.567383 2.54883,0.351562 3.70605,1.611328 1.17188,1.259765 1.17188,3.427734 z m -5.27344,-8.759765 q 0,-1.157227 -0.84961,-1.59668 -0.84961,-0.454102 -2.63672,-0.454102 l -2.63672,0 0,4.350586 2.51953,0 q 1.83106,0 2.70997,-0.512695 0.89355,-0.512695 0.89355,-1.787109 z m 1.05469,8.393554 q 0,-1.362304 -0.92285,-1.918945 -0.92286,-0.571289 -3.45704,-0.571289 l -2.79785,0 0,5.068359 2.09473,0 q 2.41699,0 3.32519,-0.234375 0.92286,-0.234375 1.33301,-0.791015 0.42481,-0.556641 0.42481,-1.552735 z" /><path
       inkscape:connector-curvature="0"
       id="path4153"
       style="font-style:normal;font-variant:normal;font-weight:bold;font-stretch:normal;font-size:medium;line-height:125%;font-family:'Clear Sans';-inkscape-font-specification:'Clear Sans Bold';letter-spacing:0px;word-spacing:0px;fill:#404552;fill-opacity:1"
       d="m 152.22809,31.360001 0,-1.977539 q -0.9961,1.069335 -2.44629,1.757812 -1.43555,0.673828 -2.76856,0.673828 -2.60742,0 -3.64746,-1.435547 -1.04004,-1.450195 -1.04004,-4.116211 l 0,-10.268554 3.7793,0 0,8.466797 q 0,1.625976 0.19043,2.490234 0.19043,0.864258 0.61523,1.201172 0.43946,0.322265 1.27442,0.322265 1.68457,0 4.04297,-2.211914 l 0,-10.268554 3.77929,0 0,15.366211 -3.77929,0 z" /><path
       inkscape:connector-curvature="0"
       id="path4155"
       style="font-style:normal;font-variant:normal;font-weight:bold;font-stretch:normal;font-size:medium;line-height:125%;font-family:'Clear Sans';-inkscape-font-specification:'Clear Sans Bold';letter-spacing:0px;word-spacing:0px;fill:#404552;fill-opacity:1"
       d="m 170.3482,31.360001 0,-1.494141 q -1.05468,0.893555 -2.22656,1.420898 -1.17187,0.527344 -2.66601,0.527344 -2.9004,0 -4.43848,-2.094726 -1.53809,-2.094727 -1.53809,-5.917969 0,-3.911133 1.68457,-6.079102 1.69922,-2.167968 4.76075,-2.167968 1.08398,0 2.22656,0.454101 1.14258,0.439453 1.88965,1.12793 l 0,-7.587891 3.77929,0 0,21.811524 -3.47168,0 z m -0.30761,-11.103516 q -0.60059,-0.541992 -1.49414,-0.952148 -0.87891,-0.424805 -1.80176,-0.424805 -1.52344,0 -2.44629,1.318359 -0.92285,1.303711 -0.92285,3.544922 0,2.211914 0.74707,3.47168 0.76172,1.259765 2.34375,1.259765 0.9375,0 1.90429,-0.424804 0.98145,-0.439453 1.66993,-1.069336 l 0,-6.723633 z" /><path
       inkscape:connector-curvature="0"
       id="path4157"
       style="font-style:normal;font-variant:normal;font-weight:bold;font-stretch:normal;font-size:medium;line-height:125%;font-family:'Clear Sans';-inkscape-font-specification:'Clear Sans Bold';letter-spacing:0px;word-spacing:0px;fill:#404552;fill-opacity:1"
       d="m 191.63238,31.067032 q 0,3.076172 -1.88965,4.570312 -1.88964,1.508789 -6.06445,1.508789 -3.44238,0 -6.02051,-1.318359 l 1.11329,-3.09082 q 2.38769,1.113281 4.90722,1.113281 2.34375,0 3.25195,-0.673828 0.92286,-0.673828 0.92286,-2.270508 l 0,-1.259766 q -1.875,1.713868 -4.52637,1.713868 -2.8125,0 -4.42383,-2.021485 -1.61133,-2.021484 -1.61133,-5.815429 0,-2.373047 0.74707,-4.174805 0.76172,-1.816406 2.21192,-2.797852 1.46484,-0.996093 3.53027,-0.996093 1.21582,0 2.43164,0.541992 1.21582,0.527343 2.03613,1.347656 l 0.49805,-1.450195 2.88574,0 0,15.073242 z m -3.77929,-10.810547 q -1.55274,-1.376953 -3.38379,-1.376953 -1.37696,0 -2.3291,1.259765 -0.95215,1.259766 -0.95215,3.325196 0,2.34375 0.83496,3.457031 0.84961,1.113281 2.19726,1.113281 1.875,0 3.63282,-1.508789 l 0,-6.269531 z" /><path
       inkscape:connector-curvature="0"
       id="path4159"
       style="font-style:normal;font-variant:normal;font-weight:bold;font-stretch:normal;font-size:medium;line-height:125%;font-family:'Clear Sans';-inkscape-font-specification:'Clear Sans Bold';letter-spacing:0px;word-spacing:0px;fill:#404552;fill-opacity:1"
       d="m 199.87945,11.804337 q 0,1.069335 -0.52734,1.49414 -0.52734,0.424805 -1.61133,0.424805 -1.20117,0 -1.64062,-0.498047 -0.42481,-0.498047 -0.42481,-1.420898 0,-1.025391 0.46875,-1.464844 0.46875,-0.454102 1.59668,-0.454102 1.14258,0 1.64063,0.439453 0.49804,0.424805 0.49804,1.479493 z m -3.99902,19.555664 0,-15.366211 3.7793,0 0,15.366211 -3.7793,0 z" /><path
       inkscape:connector-curvature="0"
       id="path4161"
       style="font-style:normal;font-variant:normal;font-weight:bold;font-stretch:normal;font-size:medium;line-height:125%;font-family:'Clear Sans';-inkscape-font-specification:'Clear Sans Bold';letter-spacing:0px;word-spacing:0px;fill:#404552;fill-opacity:1"
       d="m 207.02789,24.665665 q 0.10254,2.050781 0.99609,2.944336 0.89356,0.893554 2.8125,0.893554 1.11329,0 1.94825,-0.27832 0.84961,-0.27832 1.47949,-1.069336 l 2.8125,2.006836 q -0.92285,1.333008 -2.40234,1.992187 -1.46485,0.65918 -4.01368,0.65918 -3.79394,0 -5.66894,-1.992187 -1.86035,-1.992188 -1.86035,-6.020508 0,-8.24707 7.38281,-8.24707 3.28125,0 4.99512,1.860351 1.72851,1.845703 1.72851,5.390625 l 0,1.860352 -10.20996,0 z m 6.45996,-2.607422 q 0,-3.500977 -3.06152,-3.500977 -1.01074,0 -1.65527,0.351563 -0.64454,0.336914 -1.04004,1.02539 -0.38086,0.673828 -0.60059,2.124024 l 6.35742,0 z" /><g
       id="g1"
       transform="matrix(0.02970912,0,0,0.02566662,215.21431,1.1566907)"><path
         d="M 484.32,375.24 C 575.25,255.5 857.87,527.6 788.67,581.07 693.91,654.28 297.66,621.06 484.32,375.24 Z"
         fill="#1c80aa"
         id="path1" /><path
         d="m 224.73,264.77 -24,50.19 a 21.7,21.7 0 0 1 -37.73,2.5 l -31.57,-48.27 a 21.7,21.7 0 0 1 17.41,-33.57 l 55.61,-1.92 a 21.7,21.7 0 0 1 20.28,31.07 z"
         fill="#de7b56"
         id="path3" /><path
         d="m 900.53001,638.76 c -18.3,86.91 -221.86,208.13 -478,171.54 -272.07,-38.86 -396.52999,-528.42 -107.53,-706.74 161.25,-99.49 326.71,5 356.8,130.37 41.2,171.54 -88.65,300.65 77.77,375.07 86.91,38.91 164.43,-34.33 150.96,29.76 z"
         fill="#fdd2be"
         id="path4"
         style="fill:#404552;fill-opacity:1" /><path
         d="m 365.86,264.78 m -32.45,0 a 32.45,32.45 0 1 0 64.9,0 32.45,32.45 0 1 0 -64.9,0 z"
         fill=""
         id="path5"
         style="fill:#f9f9f9" /><path
         d="M 512.24,366 C 649.72,305.14 765.58,680 679.16,693.31 560.81,711.56 230,490.92 512.24,366 Z M 223.3,530 c -9.34,-2.6 -17.2,-12.8 -23.94,-31 a 195,195 0 0 1 -7.64,-27 7.2848147,7.2848147 0 0 1 14.3,-2.79 c 4.79,24.5 15,46.44 21.91,46.93 1.12,0.08 11.43,-0.5 27.23,-45.51 a 7.2804533,7.2804533 0 1 1 13.74,4.82 c -13.61,38.77 -27,56.31 -42,55.22 A 18.18,18.18 0 0 1 223.3,530 Z m 117.5,60.36 c -9.63,1.14 -20.77,-5.32 -33.92,-19.63 a 195,195 0 0 1 -17.32,-22.11 7.2819795,7.2819795 0 0 1 12.17,-8 c 13.73,20.85 31.53,37.27 38.07,35.12 1.07,-0.35 10.38,-4.8 7.93,-52.44 a 7.2846585,7.2846585 0 1 1 14.55,-0.75 c 2.11,41 -3.59,62.33 -17.95,67 a 18.18,18.18 0 0 1 -3.53,0.81 z m -79.3,69.35 c -9,-0.19 -18.35,-7.55 -28.56,-22.35 a 180.41,180.41 0 0 1 -13,-22.49 6.74,6.74 0 0 1 12.18,-5.77 c 9.9,20.88 24.1,38.21 30.37,37.08 1,-0.18 10.13,-3.07 14,-47 a 6.7408698,6.7408698 0 1 1 13.43,1.18 c -3.34,37.87 -11.31,56.66 -25.07,59.12 a 16.82,16.82 0 0 1 -3.35,0.23 z m 127.78,62.58 c -9.26,2.85 -21.38,-1.51 -36.89,-13.22 a 195,195 0 0 1 -21,-18.64 7.2815606,7.2815606 0 0 1 10.53,-10.06 c 17.25,18.05 37.7,31 43.75,27.71 1,-0.54 9.35,-6.59 -1.61,-53 a 7.2803056,7.2803056 0 1 1 14.17,-3.35 c 9.44,40 7.65,62 -5.63,69.16 a 18.18,18.18 0 0 1 -3.32,1.4 z"
         fill="#22b0c3"
         id="path6"
         style="fill:#e3dedb;fill-opacity:1" /></g></g></svg>
