<?xml version="1.0" encoding="UTF-8" standalone="no"?>
<!-- Created with Inkscape (http://www.inkscape.org/) -->

<svg
   xmlns:dc="http://purl.org/dc/elements/1.1/"
   xmlns:cc="http://creativecommons.org/ns#"
   xmlns:rdf="http://www.w3.org/1999/02/22-rdf-syntax-ns#"
   xmlns:svg="http://www.w3.org/2000/svg"
   xmlns="http://www.w3.org/2000/svg"
   xmlns:sodipodi="http://sodipodi.sourceforge.net/DTD/sodipodi-0.dtd"
   xmlns:inkscape="http://www.inkscape.org/namespaces/inkscape"
   width="341.22046"
   height="48"
   id="svg2"
   version="1.1"
   inkscape:version="0.91 r13725"
   sodipodi:docname="ubuntu-mate-text.svg"
   inkscape:export-filename="/home/alfredo/ubuntu-gnome-design.png"
   inkscape:export-xdpi="90"
   inkscape:export-ydpi="90">
  <defs
     id="defs4" />
  <sodipodi:namedview
     id="base"
     pagecolor="#ffffff"
     bordercolor="#666666"
     borderopacity="1.0"
     inkscape:pageopacity="0.0"
     inkscape:pageshadow="2"
     inkscape:zoom="1.4142136"
     inkscape:cx="263.77289"
     inkscape:cy="40.6245"
     inkscape:document-units="px"
     inkscape:current-layer="layer1"
     showgrid="false"
     showguides="false"
     inkscape:guide-bbox="true"
     inkscape:snap-bbox="true"
     inkscape:snap-bbox-midpoints="true"
     inkscape:bbox-nodes="true"
     fit-margin-top="0"
     fit-margin-left="0"
     fit-margin-right="0"
     fit-margin-bottom="0"
     inkscape:bbox-paths="true"
     inkscape:snap-global="true"
     inkscape:window-width="1920"
     inkscape:window-height="1003"
     inkscape:window-x="0"
     inkscape:window-y="24"
     inkscape:window-maximized="1"
     inkscape:snap-bbox-edge-midpoints="true">
    <sodipodi:guide
       orientation="1,0"
       position="219,-114.19997"
       id="guide4673" />
    <sodipodi:guide
       orientation="1,0"
       position="228.125,-88.199966"
       id="guide4675" />
    <sodipodi:guide
       orientation="1,0"
       position="231.875,-132.57497"
       id="guide4677" />
    <sodipodi:guide
       orientation="1,0"
       position="234.125,-169.19997"
       id="guide4679" />
    <inkscape:grid
       type="xygrid"
       id="grid3474"
       empspacing="5"
       visible="true"
       enabled="true"
       snapvisiblegridlinesonly="true"
       originx="-1.139314e-06"
       originy="1.576653e-06" />
  </sodipodi:namedview>
  <metadata
     id="metadata7">
    <rdf:RDF>
      <cc:Work
         rdf:about="">
        <dc:format>image/svg+xml</dc:format>
        <dc:type
           rdf:resource="http://purl.org/dc/dcmitype/StillImage" />
        <dc:title></dc:title>
      </cc:Work>
    </rdf:RDF>
  </metadata>
  <g
     inkscape:label="Layer 1"
     inkscape:groupmode="layer"
     id="layer1"
     transform="translate(822.24649,-573.1908)">
    <g
       style="font-style:normal;font-variant:normal;font-weight:300;font-stretch:normal;font-size:64.41717529px;line-height:125%;font-family:'Source Sans Pro';-inkscape-font-specification:'Source Sans Pro Light';text-align:center;letter-spacing:0px;word-spacing:0px;text-anchor:middle;fill:#5a6943;fill-opacity:1;stroke:none"
       id="text3468">
      <path
         inkscape:connector-curvature="0"
         d="m -627.22483,621.1908 8.69631,0 0,-15.39571 c 0,-4.12269 -0.70859,-10.24233 -1.1595,-14.30061 l 0.25766,0 3.3497,9.72699 6.44171,16.29755 3.80062,0 6.44172,-16.29755 3.47852,-9.72699 0.25767,0 c -0.45092,4.05828 -1.22392,10.17792 -1.22392,14.30061 l 0,15.39571 8.82515,0 0,-42 -9.98466,0 -6.82822,18.87423 -2.51227,7.34356 -0.25767,0 -2.51227,-7.34356 -7.02148,-18.87423 -10.04907,0 0,42"
         style="font-weight:bold;-inkscape-font-specification:'Source Sans Pro Bold';fill:#5a6943"
         id="path3832" />
      <path
         inkscape:connector-curvature="0"
         d="m -569.33191,603.79816 1.03068,-3.86503 c 1.1595,-4.18711 2.2546,-9.08283 3.28527,-13.52761 l 0.25767,0 c 1.09509,4.38036 2.2546,9.3405 3.41411,13.52761 l 0.96626,3.86503 -8.95399,0 m 13.46319,17.39264 10.04908,0 -13.1411,-42 -11.40184,0 -13.14111,42 9.66258,0 2.57669,-9.98467 12.81901,0 2.57669,9.98467"
         style="font-weight:bold;-inkscape-font-specification:'Source Sans Pro Bold';fill:#5a6943"
         id="path3834" />
      <path
         inkscape:connector-curvature="0"
         d="m -535.62865,621.1908 9.53375,0 0,-34.01227 11.53067,0 0,-7.98773 -32.59509,0 0,7.98773 11.53067,0 0,34.01227"
         style="font-weight:bold;-inkscape-font-specification:'Source Sans Pro Bold';fill:#5a6943"
         id="path3836" />
      <path
         inkscape:connector-curvature="0"
         d="m -507.9524,621.1908 26.92638,0 0,-7.98773 -17.45706,0 0,-9.66258 14.30061,0 0,-7.92331 -14.30061,0 0,-8.43865 16.81288,0 0,-7.98773 -26.2822,0 0,42"
         style="font-weight:bold;-inkscape-font-specification:'Source Sans Pro Bold';fill:#5a6943"
         id="path3838" />
    </g>
    <g
       id="g17296-6-9-7-0-8"
       transform="matrix(0.28222345,0,0,0.28222345,-635.42871,444.58814)">
      <path
         id="path8714-8-4-2-7-7-8"
         d="m -571.29888,619.92674 c -4.606,1.153 -10.684,2.375 -18.238,3.669 -7.555,1.296 -16.296,1.942 -26.225,1.942 -8.633,0 -15.901,-1.261 -21.799,-3.775 -5.902,-2.516 -10.65,-6.079 -14.245,-10.685 -3.599,-4.604 -6.188,-10.037 -7.77,-16.296 -1.585,-6.259 -2.374,-13.198 -2.374,-20.827 l 0,-63.023 20.073,0 0,58.706 c 0,13.672 2.158,23.456 6.476,29.354 4.316,5.902 11.581,8.851 21.799,8.851 2.158,0 4.387,-0.072 6.691,-0.218 2.3,-0.141 4.458,-0.323 6.475,-0.539 2.013,-0.216 3.848,-0.431 5.504,-0.646 1.652,-0.216 2.839,-0.465 3.561,-0.755 l 0,-94.753 20.073,0 0,108.995 z"
         inkscape:connector-curvature="0" />
      <path
         id="path8716-6-4-4-2-4-6"
         d="m -522.30588,515.89474 c 2.445,-1.581 6.151,-3.237 11.115,-4.963 4.964,-1.728 10.684,-2.59 17.159,-2.59 8.057,0 15.216,1.438 21.476,4.315 6.259,2.88 11.547,6.907 15.863,12.088 4.317,5.18 7.588,11.368 9.821,18.562 2.229,7.196 3.346,15.107 3.346,23.74 0,9.066 -1.333,17.235 -3.993,24.5 -2.664,7.266 -6.441,13.417 -11.332,18.452 -4.894,5.039 -10.792,8.923 -17.698,11.656 -6.907,2.731 -14.677,4.1 -23.311,4.1 -9.355,0 -17.627,-0.646 -24.821,-1.942 -7.196,-1.295 -13.095,-2.589 -17.698,-3.885 l 0,-160.799 20.073,-3.452 0,60.218 z m 0,89.788 c 2.013,0.576 4.856,1.115 8.526,1.617 3.669,0.506 8.235,0.757 13.705,0.757 10.792,0 19.425,-3.562 25.9,-10.684 6.475,-7.124 9.713,-17.231 9.713,-30.327 0,-5.751 -0.577,-11.148 -1.727,-16.187 -1.153,-5.035 -3.021,-9.388 -5.611,-13.057 -2.59,-3.67 -5.936,-6.547 -10.037,-8.635 -4.101,-2.084 -9.032,-3.129 -14.785,-3.129 -5.47,0 -10.505,0.938 -15.108,2.806 -4.607,1.872 -8.131,3.815 -10.576,5.827 l 0,71.012 z"
         inkscape:connector-curvature="0" />
      <path
         id="path8718-7-1-0-6-9-8"
         d="m -331.50988,619.92674 c -4.607,1.153 -10.684,2.375 -18.238,3.669 -7.555,1.296 -16.295,1.942 -26.224,1.942 -8.634,0 -15.901,-1.261 -21.8,-3.775 -5.902,-2.516 -10.65,-6.079 -14.245,-10.685 -3.599,-4.604 -6.188,-10.037 -7.77,-16.296 -1.585,-6.26 -2.375,-13.199 -2.375,-20.828 l 0,-63.022 20.073,0 0,58.706 c 0,13.672 2.158,23.456 6.475,29.354 4.316,5.902 11.581,8.851 21.799,8.851 2.158,0 4.388,-0.072 6.691,-0.218 2.3,-0.141 4.458,-0.323 6.475,-0.539 2.013,-0.216 3.848,-0.431 5.504,-0.646 1.652,-0.216 2.84,-0.465 3.561,-0.755 l 0,-94.753 20.073,0 0,108.995 z"
         inkscape:connector-curvature="0" />
      <path
         id="path8720-5-9-6-9-2-5"
         d="m -302.59088,514.16874 c 4.604,-1.151 10.717,-2.375 18.347,-3.671 7.625,-1.294 16.402,-1.941 26.33,-1.941 8.922,0 16.33,1.261 22.232,3.776 5.898,2.52 10.609,6.043 14.137,10.576 3.523,4.533 6.006,9.967 7.447,16.296 1.436,6.333 2.158,13.312 2.158,20.937 l 0,63.023 -20.074,0 0,-58.708 c 0,-6.905 -0.469,-12.803 -1.402,-17.697 -0.938,-4.89 -2.48,-8.849 -4.641,-11.87 -2.158,-3.023 -5.037,-5.216 -8.633,-6.584 -3.6,-1.367 -8.061,-2.051 -13.381,-2.051 -2.16,0 -4.393,0.074 -6.691,0.216 -2.304,0.145 -4.499,0.325 -6.583,0.541 -2.089,0.215 -3.96,0.469 -5.611,0.755 -1.656,0.29 -2.844,0.506 -3.562,0.646 l 0,94.751 -20.073,0 0,-108.995 z"
         inkscape:connector-curvature="0" />
      <path
         id="path8722-1-1-4-4-40-9"
         d="m -165.53688,510.93174 42.52,0 0,16.835 -42.52,0 0,51.799 c 0,5.611 0.43,10.253 1.295,13.921 0.863,3.671 2.158,6.549 3.885,8.634 1.727,2.088 3.885,3.562 6.475,4.425 2.59,0.863 5.611,1.296 9.064,1.296 6.186,0 11.08,-0.682 14.678,-2.051 3.594,-1.366 6.043,-2.337 7.338,-2.913 l 4.316,16.403 c -2.016,1.008 -5.578,2.304 -10.684,3.884 -5.109,1.582 -10.898,2.374 -17.375,2.374 -7.627,0 -13.92,-0.97 -18.885,-2.913 -4.965,-1.943 -8.957,-4.856 -11.979,-8.741 -3.021,-3.886 -5.146,-8.668 -6.367,-14.354 -1.225,-5.682 -1.836,-12.264 -1.836,-19.748 l 0,-100.148 20.074,-3.453 0,34.75 z"
         inkscape:connector-curvature="0" />
      <path
         id="path8724-9-7-7-9-59-8"
         d="m -13.80688,619.92674 c -4.607,1.153 -10.686,2.375 -18.238,3.669 -7.555,1.296 -16.295,1.942 -26.225,1.942 -8.633,0 -15.9,-1.261 -21.799,-3.775 -5.902,-2.516 -10.65,-6.079 -14.246,-10.685 -3.598,-4.604 -6.188,-10.037 -7.77,-16.296 -1.586,-6.26 -2.375,-13.199 -2.375,-20.828 l 0,-63.022 20.074,0 0,58.706 c 0,13.672 2.158,23.456 6.475,29.354 4.316,5.902 11.58,8.851 21.799,8.851 2.158,0 4.387,-0.072 6.691,-0.218 2.299,-0.141 4.459,-0.323 6.475,-0.539 2.014,-0.216 3.848,-0.431 5.504,-0.646 1.652,-0.216 2.84,-0.465 3.561,-0.755 l 0,-94.753 20.074,0 0,108.995 z"
         inkscape:connector-curvature="0" />
    </g>
  </g>
</svg>
