<?xml version="1.0" encoding="utf-8"?>
<!-- Generator: Adobe Illustrator 19.0.0, SVG Export Plug-In . SVG Version: 6.00 Build 0)  -->
<svg version="1.1" id="Layer_1" xmlns="http://www.w3.org/2000/svg" xmlns:xlink="http://www.w3.org/1999/xlink" x="0px" y="0px"
	 viewBox="0 0 16 16" style="enable-background:new 0 0 16 16;" xml:space="preserve">
<style type="text/css">
	.st0{fill:white;}
</style>
<g id="XMLID_31_">
	<path id="XMLID_70_" class="st0" d="M8.1,0C3.6,0,0,3.6,0,7.9c0,4.4,3.6,8,7.9,8.1c4.5,0,8.1-3.5,8.1-8C16,3.6,12.4,0,8.1,0z
		 M15.2,8.4c0,0-0.1,0-0.1,0c-1-0.3-2-0.4-3-0.4c-0.1,0-0.2,0-0.3,0.1c-0.3,0.6-0.9,1-1.6,1.1C9.9,9.4,9.6,9.4,9.2,9.5
		c0.5,0.4,0.5,0.9,0.6,1.5c0,0.5,0,0.9,0,1.4c0,0.2,0.1,0.4,0.3,0.6c0,0,0.1,0,0.1,0.1c0.1,0.1,0.1,0.1,0.2,0.2
		c-0.1,0-0.2,0.1-0.3,0.1c-0.2,0-0.4-0.1-0.6-0.2c-0.2-0.1-0.3-0.3-0.3-0.6c0-0.5,0-1.1,0-1.6c0-0.2,0-0.3-0.2-0.5
		c0,0.1,0,0.1,0,0.1c0,0.7,0,1.3,0,2C8.8,12.8,9,13,9,13.2c0,0,0.1,0.1,0.1,0.1c0,0.1,0,0.2,0,0.2c0,0-0.1,0.1-0.2,0
		c-0.5-0.1-0.8-0.5-0.8-1c0-0.7,0-1.3,0-2c0-0.1,0-0.1,0-0.2c-0.1,0-0.1,0-0.2,0c0,0,0,0.1,0,0.1c0,0.6,0,1.1,0,1.7
		c0,0.2,0,0.5-0.1,0.7c-0.1,0.4-0.4,0.7-0.8,0.7c-0.1,0-0.1,0-0.2-0.1c0-0.1,0-0.1,0.1-0.2C7,13.2,7.1,13,7.1,12.9
		c0-0.8,0.1-1.6,0-2.4C7,10.6,7,10.7,7,10.9c0,0.5,0,1.1,0,1.6c0,0.5-0.6,1-1.1,0.8c-0.1,0-0.1-0.1,0-0.2C5.9,13,5.9,13,6,12.9
		c0.2-0.1,0.3-0.3,0.3-0.5c0-0.4,0-0.7,0-1.1c-0.3,0-0.5,0-0.8,0c-0.6,0-1-0.3-1.2-0.8c-0.2-0.4-0.4-0.8-0.8-1c0,0-0.1-0.1-0.1-0.2
		c0.1,0,0.1-0.1,0.2-0.1c0.3-0.1,0.6,0.1,0.8,0.3C4.4,9.6,4.5,9.8,4.7,10c0.3,0.4,0.7,0.5,1.1,0.5c0.1,0,0.1,0,0.2,0
		c0.2,0,0.3-0.1,0.4-0.3c0.1-0.2,0.2-0.4,0.3-0.6C6.4,9.4,6,9.3,5.6,9.2C4.9,9,4.4,8.6,4.1,8.1C4.1,8,4,8,3.9,8C2.9,8,2,8.2,1,8.4
		c-0.1,0-0.1,0-0.2,0C1.8,8,2.9,7.9,4,7.9c0-0.2-0.1-0.3-0.3-0.2C2.8,7.7,2,7.8,1.2,7.8c-0.1,0-0.2,0-0.4,0.1c0,0,0,0,0-0.1
		c0,0,0.1-0.1,0.1-0.1c0.4-0.1,0.8-0.1,1.3-0.1c0.5,0,1.1-0.1,1.6-0.1c0-0.4-0.1-0.8-0.1-1.2C3.6,5.6,3.8,5,4.2,4.4
		c0.1-0.1,0.1-0.2,0.1-0.3c-0.1-0.5-0.1-1,0.1-1.4c0.1-0.3,0.1-0.3,0.4-0.2C5.2,2.6,5.6,2.8,6,3c0.2,0.1,0.3,0.2,0.6,0.1
		c0.9-0.2,1.9-0.2,2.8,0c0.1,0,0.2,0,0.3,0c0.4-0.2,0.8-0.4,1.1-0.5c0.6-0.2,0.6-0.1,0.7,0.4c0.1,0.3,0,0.7,0,1c0,0.1,0,0.2,0.1,0.3
		c0.6,0.7,0.8,1.6,0.7,2.5c0,0.2-0.1,0.5-0.1,0.7c1,0,2.1,0,3.1,0.3c0,0,0,0,0,0.1c0,0-0.1,0-0.1,0c-0.9-0.2-1.8-0.2-2.7-0.2
		c0,0-0.1,0-0.1,0c-0.2,0-0.3,0.1-0.3,0.3C13.1,7.9,14.2,8,15.2,8.4C15.2,8.4,15.2,8.4,15.2,8.4z"/>
	<path id="XMLID_34_" class="st0" d="M9.5,5.8c-1,0.1-2,0.1-3,0C5.8,5.7,5.3,6,5,6.5C4.7,7.1,4.7,7.9,5.1,8.4C5.4,8.7,5.8,9,6.3,9
		c0.6,0.1,1.2,0.1,1.6,0.1c0.7,0,1.1,0,1.6-0.1c0.9-0.1,1.6-0.5,1.7-1.6C11.3,6.5,10.7,5.7,9.5,5.8z M6.5,7.8C6.4,8,6.2,8,6,7.8
		C5.7,7.6,5.7,7,6,6.8c0.2-0.2,0.4-0.2,0.5,0c0.1,0.1,0.2,0.3,0.2,0.6C6.7,7.5,6.6,7.7,6.5,7.8z M10.2,7.8C10,8,9.7,8,9.5,7.7
		C9.4,7.6,9.4,7.5,9.4,7.3C9.4,7.1,9.5,7,9.6,6.8c0.1-0.2,0.4-0.2,0.6,0C10.3,7.1,10.3,7.5,10.2,7.8z"/>
</g>
<g id="XMLID_1_">
</g>
<g id="XMLID_2_">
</g>
<g id="XMLID_3_">
</g>
<g id="XMLID_4_">
</g>
<g id="XMLID_5_">
</g>
<g id="XMLID_6_">
</g>
</svg>
