<?xml version="1.0" encoding="utf-8"?>
<!-- Generator: Adobe Illustrator 19.0.0, SVG Export Plug-In . SVG Version: 6.00 Build 0)  -->
<svg version="1.1" id="Layer_1" xmlns="http://www.w3.org/2000/svg" xmlns:xlink="http://www.w3.org/1999/xlink" x="0px" y="0px"
	 viewBox="0 0 16 16" style="enable-background:new 0 0 16 16;" xml:space="preserve">
<style type="text/css">
	.st0{fill:white;}
</style>
<g id="XMLID_107_">
	<path id="XMLID_138_" class="st0" d="M9.8,10.9c-0.1,0-0.1,0-0.2,0.1c-0.3,0.3-0.8,0.5-1.6,0.5h0c-0.8,0-1.3-0.2-1.6-0.5
		c0,0-0.1-0.1-0.2-0.1c-0.1,0-0.1,0-0.2,0.1C6,11,6,11,6,11.1c0,0.1,0,0.1,0.1,0.2c0.4,0.4,1,0.6,1.9,0.6h0c0.9,0,1.5-0.2,1.9-0.6
		c0,0,0.1-0.1,0.1-0.2c0-0.1,0-0.1-0.1-0.2C9.9,10.9,9.8,10.9,9.8,10.9z"/>
	<path id="XMLID_133_" class="st0" d="M6.8,9.5C6.9,9.3,7,9.1,7,8.9c0-0.2-0.1-0.4-0.2-0.6C6.6,8.2,6.4,8.1,6.2,8.1
		C6,8.1,5.8,8.2,5.6,8.3C5.5,8.5,5.4,8.7,5.4,8.9c0,0.2,0.1,0.4,0.2,0.6C5.8,9.7,6,9.7,6.2,9.7C6.4,9.7,6.6,9.7,6.8,9.5z"/>
	<path id="XMLID_126_" class="st0" d="M8,0C3.6,0,0,3.6,0,8c0,4.4,3.6,8,8,8s8-3.6,8-8C16,3.6,12.4,0,8,0z M13.5,8.6
		C13.4,8.8,13.2,9,13,9.1c0,0.2,0.1,0.3,0.1,0.5c0,0.6-0.2,1.2-0.7,1.7c-0.5,0.5-1.1,0.9-1.9,1.2c-0.8,0.3-1.6,0.4-2.6,0.4
		c-0.9,0-1.8-0.1-2.6-0.4c-0.8-0.3-1.4-0.7-1.9-1.2c-0.5-0.5-0.7-1.1-0.7-1.7c0-0.2,0-0.3,0.1-0.5C2.7,9,2.6,8.8,2.4,8.6
		C2.3,8.5,2.3,8.2,2.3,8c0-0.3,0.1-0.6,0.3-0.8C2.8,7,3.1,6.9,3.4,6.9C3.7,6.9,4,7,4.2,7.3c1-0.7,2.1-1,3.5-1l0.9-2.8
		c0-0.1,0.1-0.1,0.1-0.1c0.1,0,0.1,0,0.2,0L11,3.8c0.1-0.2,0.2-0.4,0.4-0.5c0.2-0.1,0.4-0.2,0.6-0.2c0.3,0,0.6,0.1,0.8,0.3
		c0.2,0.2,0.3,0.5,0.3,0.8c0,0.3-0.1,0.6-0.3,0.8c-0.2,0.2-0.5,0.3-0.8,0.3c-0.3,0-0.6-0.1-0.8-0.3s-0.3-0.5-0.3-0.8L9,3.8L8.2,6.2
		c1.4,0,2.5,0.4,3.5,1.1c0.2-0.3,0.5-0.4,0.9-0.4c0.3,0,0.6,0.1,0.8,0.3c0.2,0.2,0.3,0.5,0.3,0.8C13.7,8.2,13.7,8.4,13.5,8.6z"/>
	<path id="XMLID_115_" class="st0" d="M9.8,8.1c-0.2,0-0.4,0.1-0.6,0.2C9,8.5,9,8.7,9,8.9C9,9.1,9,9.3,9.2,9.5
		c0.2,0.2,0.4,0.2,0.6,0.2s0.4-0.1,0.6-0.2c0.2-0.2,0.2-0.4,0.2-0.6c0-0.2-0.1-0.4-0.2-0.6C10.2,8.2,10,8.1,9.8,8.1z"/>
	<path id="XMLID_108_" class="st0" d="M12,4.9c0.2,0,0.3-0.1,0.5-0.2c0.1-0.1,0.2-0.3,0.2-0.5c0-0.2-0.1-0.3-0.2-0.5
		c-0.1-0.1-0.3-0.2-0.5-0.2c-0.2,0-0.3,0.1-0.5,0.2S11.4,4,11.4,4.2c0,0.2,0.1,0.3,0.2,0.5S11.9,4.9,12,4.9z"/>
</g>
<g id="XMLID_1_">
</g>
<g id="XMLID_2_">
</g>
<g id="XMLID_3_">
</g>
<g id="XMLID_4_">
</g>
<g id="XMLID_5_">
</g>
<g id="XMLID_6_">
</g>
</svg>
