<?xml version="1.0" encoding="UTF-8" standalone="no"?>
<svg
   xmlns:dc="http://purl.org/dc/elements/1.1/"
   xmlns:cc="http://creativecommons.org/ns#"
   xmlns:rdf="http://www.w3.org/1999/02/22-rdf-syntax-ns#"
   xmlns:svg="http://www.w3.org/2000/svg"
   xmlns="http://www.w3.org/2000/svg"
   version="1.1"
   id="Layer_1"
   x="0px"
   y="0px"
   viewBox="0 0 16 16"
   width="16"
   height="16">
  <metadata
     id="metadata33">
    <rdf:RDF>
      <cc:Work
         rdf:about="">
        <dc:format>image/svg+xml</dc:format>
        <dc:type
           rdf:resource="http://purl.org/dc/dcmitype/StillImage" />
        <dc:title></dc:title>
      </cc:Work>
    </rdf:RDF>
  </metadata>
  <rect
     id="rect842"
     width="16"
     height="16"
     x="0"
     y="0"
     style="fill:none" />
  <path
     style="fill:#ffffff"
     d="m 7.9998098,3.0000005 c 0,0 -4.4702436,2.3e-5 -5.5878906,0.294141 -0.6,0.164705 -1.0942785,0.658938 -1.2589844,1.270703 -0.29411762,1.1176468 -0.29414062,3.435156 -0.29414062,3.435156 0,0 2.3e-5,2.3292735 0.29414062,3.4351565 0.1647059,0.611765 0.6472197,1.094278 1.2589844,1.258984 C 3.541331,13.000023 7.9998098,13 7.9998098,13 c 0,0 4.4706342,-2.3e-5 5.5882812,-0.29414 0.611765,-0.164706 1.094278,-0.64722 1.258984,-1.258985 0.294118,-1.117647 0.294141,-3.4351557 0.294141,-3.4351557 0,0 0.01174,-2.329228 -0.294141,-3.4468748 C 14.682369,3.9530795 14.199856,3.4705655 13.588091,3.3058595 12.470444,2.9999775 7.9998098,3.0000005 7.9998098,3.0000005 Z M 6.5763724,5.8589849 10.29395,8.0000005 6.5763724,10.141016 Z"
     id="path7" />
</svg>
