<?xml version="1.0" encoding="UTF-8" standalone="no"?>
<svg xmlns:rdf="http://www.w3.org/1999/02/22-rdf-syntax-ns#" xmlns="http://www.w3.org/2000/svg" height="256" width="256" version="1.1" xmlns:cc="http://creativecommons.org/ns#" xmlns:dc="http://purl.org/dc/elements/1.1/" viewBox="0 0 256 256">
 <title>budgie-remix Logo</title>
 <metadata>
  <rdf:RDF>
   <cc:Work rdf:about="">
    <dc:format>image/svg+xml</dc:format>
    <dc:type rdf:resource="http://purl.org/dc/dcmitype/StillImage"/>
    <dc:title>budgie-remix Logo</dc:title>
    <dc:creator>
     <cc:Agent>
      <dc:title>HEXcube and Joshua &quot;Foggalong&quot; Fogg</dc:title>
     </cc:Agent>
    </dc:creator>
    <cc:license rdf:resource="http://creativecommons.org/licenses/by-sa/4.0/"/>
    <dc:source>Budgie Logo by Yuri Henrique</dc:source>
   </cc:Work>
  </rdf:RDF>
 </metadata>
 <path fill="#fff" d="m128 0a128 128 0 0 0 -128 128 128 128 0 0 0 128 128 128 128 0 0 0 128 -128 128 128 0 0 0 -128 -128zm35.96 19.254c3.6 0.042 6.76 0.518 10.46 1.127 15.41 2.536 31.07 13.821 40.56 30.267 12.81 22.187 9.94 48.932-4.68 63.902-7.34 7.52-9.53 7.93-14.33 11.16 3.27-5.15 4.28-7.14 4.27-11.41 0-2.68-0.85-4.87-1.33-6.11-1.86-4.73-5.16-6.71-9.02-8.995-4.74-2.807-10.22-3.669-13.66-3.662-2.67 0.006-4.05 0.015-7.56 0.903-16.66 4.204-34.84-2.339-43.62-17.543l0.01 0.002c-10.5-18.176-3.9-41.636 14.77-52.409 5.5-3.173 11.95-6.216 17.96-6.9 1.65-0.188 3.16-0.289 4.59-0.322 0.54-0.013 1.06-0.016 1.58-0.01zm-98.521 42.928c3.318 0.042 6.591 0.459 9.758 1.267 10.184 2.6 11.638 4.297 16.84 6.834-6.1-0.254-8.331-0.131-12.025 2.008-2.318 1.343-3.794 3.168-4.619 4.203-3.172 3.978-3.236 7.829-3.286 12.311-0.061 5.508 1.932 10.681 3.661 13.655 1.34 2.32 2.035 3.5 4.562 6.1 11.971 12.32 15.393 31.34 6.615 46.55v-0.01c-10.493 18.18-34.11 24.19-52.775 13.41-5.498-3.17-11.357-7.24-14.953-12.1-3.953-5.34-5.609-9.45-7.625-14.8-5.5124-14.62-3.566-33.82 5.929-50.262 10.809-18.72 30.006-29.396 47.918-29.166zm106.56 87.818c20.98 0 38 17.45 38 39-0.01 6.35-0.6 13.46-3.01 19-2.65 6.1-5.38 9.58-9 14-9.9 12.09-27.5 20-46.49 20-25.62 0-47.35-15.85-53.004-36-2.84-10.12-2.096-12.22-2.5-18 2.83 5.41 4.054 7.28 7.754 9.41 2.32 1.34 4.64 1.7 5.95 1.9 5.03 0.76 8.39-1.11 12.3-3.31 4.8-2.7 8.28-7.01 10-10 1.33-2.32 2.01-3.51 3-7 4.68-16.53 19.44-29 37-29z"/>
</svg>
