<?xml version="1.0" encoding="UTF-8" standalone="no"?>
<svg
   width="55"
   height="55"
   viewBox="0 0 14.551797 14.551797"
   version="1.1"
   id="svg2"
   sodipodi:docname="distributor-logo-ubuntu-budgie.svg"
   inkscape:version="1.2.2 (b0a8486541, 2022-12-01)"
   inkscape:export-filename="..\..\..\..\..\distributor-logo-ubuntu-budgie.png"
   inkscape:export-xdpi="96"
   inkscape:export-ydpi="96"
   xmlns:inkscape="http://www.inkscape.org/namespaces/inkscape"
   xmlns:sodipodi="http://sodipodi.sourceforge.net/DTD/sodipodi-0.dtd"
   xmlns="http://www.w3.org/2000/svg"
   xmlns:svg="http://www.w3.org/2000/svg">
  <defs
     id="defs2" />
  <sodipodi:namedview
     id="namedview2"
     pagecolor="#ffffff"
     bordercolor="#000000"
     borderopacity="0.25"
     inkscape:showpageshadow="2"
     inkscape:pageopacity="0.0"
     inkscape:pagecheckerboard="0"
     inkscape:deskcolor="#d1d1d1"
     inkscape:zoom="9.0708542"
     inkscape:cx="48.396765"
     inkscape:cy="39.026093"
     inkscape:window-width="1920"
     inkscape:window-height="1011"
     inkscape:window-x="0"
     inkscape:window-y="0"
     inkscape:window-maximized="1"
     inkscape:current-layer="svg2"
     showgrid="false" />
  <path
     fill="#3d424e"
     stroke-width="0.944114"
     d="m 7.3619431,5.0915e-4 a 7.2758984,7.2758984 0 1 0 0,14.55077885 7.2758984,7.2758984 0 0 0 0,-14.55077885 z"
     id="path1"
     style="fill:#4f5565;fill-opacity:0.323341" />
  <path
     fill="#ffffff"
     d="m 7.2588423,0.27344905 c 3.8730817,-9.151e-4 7.0130637,3.13906775 7.0121487,7.01214975 0,3.8724332 -3.139714,7.0114042 -7.0121487,7.0104912 -3.8717871,0 -7.01049205,-3.138705 -7.01049205,-7.0104912 C 0.24743525,3.413163 3.3864072,0.27344905 7.2588423,0.27344905 Z"
     id="path2"
     sodipodi:nodetypes="ccccc"
     style="stroke-width:1.65616" />
  <path
     d="M 7.539992,6.0522799 C 6.0819645,4.2910873 1.5502572,8.2932616 2.6598512,9.0797227 4.1792932,10.156529 10.533016,9.6679147 7.539992,6.0522799 Z"
     fill="#1c80aa"
     id="path1-3"
     style="stroke-width:0.271044" />
  <path
     d="m 11.702423,4.427435 0.38483,0.7382185 a 0.34795147,0.31917371 0 0 0 0.604987,0.03678 L 13.198454,4.4924552 A 0.34795147,0.31917371 0 0 0 12.919292,3.9986929 L 12.027605,3.970445 a 0.34795147,0.31917371 0 0 0 -0.325182,0.45699 z"
     fill="#de7b56"
     id="path3"
     style="stroke-width:0.271044" />
  <path
     d="M 0.86621725,9.9282557 C 1.1596532,11.206568 4.4236612,12.989528 8.5307723,12.451345 12.893314,11.879773 14.888985,4.6790965 10.254976,2.0562833 7.6693921,0.59293765 5.0163016,2.1298283 4.5338192,3.9738275 3.8731942,6.4969175 5.9552898,8.3959261 3.2868072,9.4905296 1.8932382,10.06284 0.65023225,8.9855896 0.86621725,9.9282557 Z"
     fill="#fdd2be"
     id="path4"
     style="fill:#404552;fill-opacity:1;stroke-width:0.271044" />
  <path
     d="m 9.4394555,4.4275823 m 0.5203241,0 a 0.52032433,0.47729024 0 1 1 -1.0406486,0 0.52032433,0.47729024 0 1 1 1.0406486,0 z"
     fill=""
     id="path5"
     style="fill:#f9f9f9;stroke-width:0.271044" />
  <path
     d="M 7.0923064,5.9163728 C 4.8878646,5.0212166 3.0300932,10.534832 4.4158042,10.730603 6.3135036,10.999033 11.617921,7.7537557 7.0923064,5.9163728 Z m 4.6330456,2.4121888 c 0.149759,-0.038237 0.275797,-0.1882682 0.38387,-0.4559611 a 3.1267529,2.8681509 0 0 0 0.122504,-0.3971296 0.11680942,0.10714854 0 0 0 -0.229295,-0.041037 c -0.07681,0.360358 -0.240521,0.683062 -0.35132,0.690269 -0.01795,0.00119 -0.183276,-0.00729 -0.436622,-0.6693828 a 0.11673939,0.10708429 0 1 0 -0.220316,0.070888 c 0.218231,0.5702478 0.432936,0.8282342 0.673454,0.8122013 a 0.29150957,0.26739992 0 0 0 0.05773,-0.00989 z M 9.841283,9.2163657 c 0.1544144,0.016771 0.333039,-0.078255 0.543895,-0.2887271 a 3.1267529,2.8681509 0 0 0 0.27772,-0.325205 0.11676603,0.10710876 0 0 0 -0.195143,-0.1176727 C 10.247602,8.7914317 9.9621847,9.0329456 9.8573173,9.0013226 9.8401673,8.9961226 9.6908788,8.9307226 9.730161,8.2300105 A 0.11680681,0.10714615 0 1 0 9.496859,8.2189985 c -0.033838,0.6030481 0.057574,0.9167791 0.28782,0.9854671 a 0.29150957,0.26739992 0 0 0 0.056609,0.01198 z m 1.271546,1.0200323 c 0.144308,-0.0027 0.294236,-0.111048 0.457949,-0.3287343 a 2.8928077,2.6535544 0 0 0 0.20845,-0.330793 0.1080734,0.09913505 0 0 0 -0.1953,-0.084875 c -0.158742,0.3071139 -0.386436,0.5620103 -0.486972,0.5453903 -0.01604,-0.0027 -0.162431,-0.04516 -0.224484,-0.6912984 a 0.10808745,0.09914799 0 1 0 -0.215345,0.01735 c 0.05356,0.557006 0.181352,0.8333784 0.401988,0.8695624 a 0.26970248,0.24739641 0 0 0 0.05371,0.0035 z m -2.0489053,0.920454 c 0.1484768,0.04192 0.3428212,-0.02221 0.591518,-0.194446 A 3.1267529,2.8681509 0 0 0 9.9921684,10.688238 0.11675718,0.10710066 0 0 0 9.8233246,10.540284 c -0.2765984,0.26549 -0.6045069,0.455963 -0.7015165,0.407573 -0.016041,-0.0078 -0.1499252,-0.09695 0.025819,-0.779549 A 0.11673826,0.10708329 0 1 0 8.920416,10.119028 c -0.1513649,0.588338 -0.122671,0.911924 0.090281,1.017237 a 0.29150957,0.26739992 0 0 0 0.05324,0.02068 z"
     fill="#22b0c3"
     id="path6"
     style="fill:#e3dedb;fill-opacity:1;stroke-width:0.271044" />
  <g
     inkscape:groupmode="layer"
     id="layer1"
     inkscape:label="Layer 1"
     transform="translate(-0.93913442,-1.5137343)" />
</svg>
