<?xml version="1.0" encoding="utf-8"?>
<!-- Generator: Adobe Illustrator 27.5.0, SVG Export Plug-In . SVG Version: 6.00 Build 0)  -->
<svg version="1.1"
	 id="svg5" xmlns:sodipodi="http://sodipodi.sourceforge.net/DTD/sodipodi-0.dtd" xmlns:inkscape="http://www.inkscape.org/namespaces/inkscape" xmlns:svg="http://www.w3.org/2000/svg" inkscape:version="1.2.1 (9c6d41e410, 2022-07-14)" sodipodi:docname="Mozilla Thunderbird 2023.svg"
	 xmlns="http://www.w3.org/2000/svg" xmlns:xlink="http://www.w3.org/1999/xlink" x="0px" y="0px" viewBox="0 0 637.39 622.13"
	 style="enable-background:new 0 0 637.39 622.13;" xml:space="preserve">
<style type="text/css">
	.st0{fill:url(#path8792_00000158010374524919211110000017587896842329534397_);}
	.st1{fill:#962B2B;fill-opacity:0.2993;}
	.st2{fill:#1C91F0;fill-opacity:0.9804;}
	.st3{clip-path:url(#SVGID_00000154391770235607824330000014121444698727120823_);filter:url(#filter34608);}
	.st4{fill:#0E57A7;}
	.st5{fill:url(#path7141_00000114766340807404062110000017413784953446184323_);}
	.st6{fill:url(#path8781_00000094587959161383814780000017703090735897793418_);}
	.st7{fill:url(#path11330_00000134222588590147306670000010713590787333651097_);}
	.st8{fill:url(#path11198_00000075137321970657209620000006220707610022604967_);}
	.st9{fill:#FFFFFF;}
	.st10{fill:url(#circle10320_00000129182395128673630910000012647567873642821009_);}
	.st11{fill:url(#path10318_00000179629713614656027260000006659076358489463201_);}
	.st12{fill:url(#path10383_00000103244584310591095380000016165927726392447384_);}
	.st13{clip-path:url(#SVGID_00000078733260776356903650000005524909609807031972_);filter:url(#filter25482);}
	.st14{fill:#61A1D8;}
	.st15{fill:url(#path12930_00000078027205467137341720000003906519781528921780_);}
	.st16{fill:#EEF8FF;}
	.st17{fill:url(#path8779_00000071551668748275333340000006099320862251659450_);}
	.st18{clip-path:url(#SVGID_00000054953294301751034350000006247039039370617767_);filter:url(#filter38313);}
	.st19{opacity:0.5915;fill:#147EE1;}
</style>
<filter  height="2.0637814" id="filter38313" inkscape:collect="always" style="color-interpolation-filters:sRGB" width="2.2657872" x="-0.63289358" y="-0.53189068">
	<feGaussianBlur  id="feGaussianBlur38315" inkscape:collect="always" stdDeviation="3.6791474"></feGaussianBlur>
</filter>
<filter  height="1.6680044" id="filter34608" inkscape:collect="always" style="color-interpolation-filters:sRGB" width="1.6829684" x="-0.34148419" y="-0.33400219">
	<feGaussianBlur  id="feGaussianBlur34610" inkscape:collect="always" stdDeviation="13.57524"></feGaussianBlur>
</filter>
<filter  height="1.3336626" id="filter25482" inkscape:collect="always" style="color-interpolation-filters:sRGB" width="1.1596878" x="-0.07984389" y="-0.1668313">
	<feGaussianBlur  id="feGaussianBlur25484" inkscape:collect="always" stdDeviation="1.9963303"></feGaussianBlur>
</filter>
<sodipodi:namedview  bordercolor="#000000" borderopacity="0.25" id="namedview7" inkscape:current-layer="layer1" inkscape:cx="-659.02352" inkscape:cy="772.1606" inkscape:deskcolor="#d1d1d1" inkscape:document-units="mm" inkscape:pagecheckerboard="0" inkscape:pageopacity="0.0" inkscape:showpageshadow="2" inkscape:window-height="1009" inkscape:window-maximized="1" inkscape:window-width="1920" inkscape:window-x="-8" inkscape:window-y="-8" inkscape:zoom="0.35355339" pagecolor="#ffffff" showgrid="false">
	</sodipodi:namedview>
<g id="layer1" transform="translate(12.15693,-14.844722)" inkscape:groupmode="layer" inkscape:label="Layer 1">
	<g id="g40045" transform="matrix(1.4187016,0,0,1.4187016,-173.36124,-9.0667721)">
		
			<linearGradient id="path8792_00000166643056584012620600000004901520879833682874_" gradientUnits="userSpaceOnUse" x1="117.2514" y1="402.6012" x2="214.2817" y2="352.0203" gradientTransform="matrix(4.0215 0 0 -4.0215 -246.3169 1770.2672)">
			<stop  offset="0" style="stop-color:#198BEC;stop-opacity:0.9961"/>
			<stop  offset="0.3408" style="stop-color:#1581E4"/>
			<stop  offset="1" style="stop-color:#0D6CD1;stop-opacity:0.9961"/>
		</linearGradient>
		<path id="path8792" style="fill:url(#path8792_00000166643056584012620600000004901520879833682874_);" d="M434.88,30.46
			c-73.46,0-115.9,27.83-129.91,61.69c-1.03,2.49-1.87,5.05-2.78,7.59c-20.2,7.48-34.05,26.01-34.06,47.11
			c0.03,4.64,0.69,9.82,2.01,14.27c20.05-14.51,45.78-20.62,67.92-20.79c58.32,0,104.02,38.86,104.02,84.48
			c-0.68,54.3-54.89,84.92-102.68,84.96c-3.44,0.03-10.71-0.75-10.71,3.74c0,2.86,1.29,3.59,2.54,4.96
			c19.34,21.16,47.97,30.47,67.27,32.32c-1.24,0.03-10.46,2.69-25.36,2.69c-42.46,0-90.12-19.57-116.8-46.25
			c-21.72-21.72-32.72-47.03-38.48-69.13c-5.03-19.29-6.33-40.96-6.33-49.78c0,0,0.07-2.52-1.32-3.48
			c-0.37-0.27-0.82-0.28-1.19-0.34c-0.62,0.02-1.03,0.21-1.51,0.66c-9.98,9.23-18.83,21.33-24.53,34.85
			c-6.45,15.3-8.83,28.88-8.83,45.46c0,16.93,3.51,52.72,35.26,84.59c21.07,21.15,49.92,34.65,81.82,35.49
			c1.06,0.03,2.13,0.04,3.19,0.04c-1.07,0-2.13-0.01-3.19-0.04c-77.79-1.82-163.99-69.83-163.99-161.82
			c0,116.52,94.62,210.94,211.35,210.94c116.72,0,210.72-94.43,210.71-210.94c0-44.72-13.47-85.68-37.25-119.8
			c1.56-0.05,3.12-0.07,4.68-0.07c8.75,0,16.87,0.89,24.81,2.24c-16.14-17.57-35.67-28-50.71-33.4c15.33-5.79,33.57-8.67,44.16-8.67
			C509.97,44.08,473.06,30.46,434.88,30.46L434.88,30.46z M207.49,72.43c0.38-0.01,0.79,0.03,1.23,0.12
			C208.28,72.45,207.87,72.42,207.49,72.43z M207.49,72.43c-0.38,0.01-0.73,0.07-1.05,0.17C206.76,72.5,207.11,72.44,207.49,72.43z
			 M206.44,72.59c-0.32,0.1-0.61,0.23-0.87,0.4C205.84,72.82,206.13,72.69,206.44,72.59z M205.58,72.99
			c-0.26,0.17-0.48,0.36-0.68,0.58C205.09,73.35,205.32,73.15,205.58,72.99z M208.72,72.55c0.44,0.09,0.9,0.25,1.4,0.46
			C209.62,72.79,209.16,72.64,208.72,72.55z M210.12,73.01c1.19,0.52,2.33,1.06,3.42,1.62C212.45,74.07,211.31,73.53,210.12,73.01z
			 M213.54,74.63c1.1,0.56,2.15,1.15,3.17,1.76C215.69,75.77,214.64,75.19,213.54,74.63z M216.71,76.38c1.02,0.61,2,1.25,2.94,1.92
			C218.71,77.63,217.73,76.99,216.71,76.38z M219.66,78.3c0.95,0.67,1.86,1.37,2.75,2.1C221.52,79.67,220.6,78.97,219.66,78.3z
			 M222.41,80.4c0.89,0.73,1.75,1.5,2.59,2.31C224.16,81.91,223.3,81.14,222.41,80.4z M225,82.71c0.84,0.81,1.66,1.65,2.46,2.54
			C226.66,84.37,225.84,83.52,225,82.71z M227.46,85.26c0.8,0.89,1.59,1.82,2.36,2.79C229.05,87.07,228.26,86.14,227.46,85.26z
			 M232.12,91.12c0.94,1.37,1.84,2.77,2.72,4.2C233.97,93.89,233.06,92.49,232.12,91.12z M234.84,95.32
			c0.88,1.43,1.72,2.89,2.54,4.39C236.57,98.22,235.72,96.75,234.84,95.32z M237.39,99.71c0.82,1.49,1.61,3.01,2.37,4.56
			C238.99,102.72,238.2,101.2,237.39,99.71z M239.75,104.27c0.76,1.55,1.49,3.12,2.18,4.73
			C241.24,107.39,240.51,105.82,239.75,104.27z M241.94,109c0.7,1.6,1.36,3.24,2,4.89C243.3,112.23,242.63,110.6,241.94,109z
			 M243.94,113.89c0.64,1.66,1.24,3.34,1.82,5.05C245.18,117.23,244.57,115.55,243.94,113.89z M245.75,118.94
			c0.57,1.71,1.12,3.44,1.63,5.2C246.87,122.38,246.33,120.65,245.75,118.94z M247.38,124.13c0.51,1.76,0.99,3.54,1.44,5.34
			C248.37,127.67,247.89,125.89,247.38,124.13z M248.82,129.47c0.89,3.61,1.66,7.3,2.29,11.08
			C250.48,136.77,249.71,133.08,248.82,129.47z M183.98,131.18c-1.82,2.44-3.57,4.65-5.13,6.8
			C180.41,135.83,182.15,133.62,183.98,131.18z M178.84,137.98c-1.23,1.69-2.38,3.35-3.47,5
			C176.46,141.33,177.62,139.67,178.84,137.98z M175.37,142.98c-1.09,1.65-2.11,3.28-3.07,4.9
			C173.26,146.26,174.29,144.63,175.37,142.98z M172.3,147.88c-0.96,1.62-1.86,3.22-2.7,4.81
			C170.45,151.1,171.34,149.49,172.3,147.88z M169.6,152.69c-0.84,1.59-1.63,3.17-2.37,4.74
			C167.97,155.86,168.76,154.28,169.6,152.69z M167.23,157.43c-0.74,1.57-1.42,3.14-2.07,4.7
			C165.81,160.57,166.5,159.01,167.23,157.43z M165.17,162.13c-0.64,1.56-1.24,3.11-1.8,4.67
			C163.93,165.25,164.52,163.69,165.17,162.13z M140.57,160.27c0.27,0,0.54,0.05,0.81,0.15
			C141.11,160.32,140.84,160.27,140.57,160.27z M141.38,160.41c0.27,0.09,0.53,0.23,0.79,0.41
			C141.91,160.65,141.65,160.51,141.38,160.41z M139.73,160.45c-0.28,0.12-0.57,0.29-0.85,0.51
			C139.17,160.74,139.45,160.57,139.73,160.45z M159.39,180.66c-0.31,1.61-0.59,3.3-0.83,4.98
			C158.8,183.95,159.08,182.27,159.39,180.66z M158.57,185.63c-0.23,1.68-0.42,3.36-0.55,4.96
			C158.15,189,158.33,187.32,158.57,185.63z M131.46,180.84c-0.95,4.71-1.73,9.63-2.35,14.57
			C129.74,190.47,130.52,185.55,131.46,180.84z M129.12,195.41c-0.31,2.47-0.58,4.94-0.81,7.4
			C128.54,200.35,128.81,197.88,129.12,195.41z"/>
		<path id="path10323" sodipodi:nodetypes="ccccc" class="st1" d="M339.01,115.05c-21.1,0-56.65,11.34-68.87,46.07
			c20.05-14.51,45.78-20.62,67.92-20.79c27.85,0,52.82,8.87,71.31,23.1C398.04,134.25,370.11,115.05,339.01,115.05z"/>
		<path id="path4190" sodipodi:nodetypes="csssscccssscssccsssscccsssccccccc" class="st2" d="M294.42,385.6
			c-33.17,0-63.24-13.68-85.01-35.54c-31.75-31.87-35.26-67.66-35.26-84.59c0-16.59,2.38-30.16,8.83-45.46
			c5.7-13.52,14.55-25.63,24.53-34.85c0.48-0.45,0.9-0.65,1.51-0.66c0.37,0.06,0.82,0.08,1.19,0.34c1.4,0.96,1.32,3.48,1.32,3.48
			c0,8.82,1.3,30.49,6.33,49.78c5.76,22.09,16.77,47.41,38.48,69.13c26.68,26.68,74.35,46.25,116.8,46.25
			c14.9,0,24.12-2.66,25.36-2.69c-67.78,7.08-140.4-28.62-159.23-90.66c-3.51-11.57-4.88-21.13-4.88-35.01
			c0-21.03,8.47-36.13,18.73-48.62c1.55-33.48-6.04-63.47-21-85.38c-6.07-8.58-12.5-13.96-22.01-18.11
			c-3.96-1.73-6.11,0.73-6.11,2.83c0,1.38-0.52,8.97-4.18,22.8c-5.6,21.14-14.73,30.74-20.99,39.34
			c-9.82,13.48-15,25.68-18.41,38.13c-1.49,5.58-2.59,13.49-2.63,18.99c0,1.38,0.04,2.75,0.1,4.11
			c-5.52-10.9-9.14-21.65-12.17-32.54c-0.88-3.15-2.98-6.4-5.15-6.4c-2.2,0-4.73,4.09-5.74,7.27c-5.19,16.37-7.51,39.21-7.59,56.2
			C127.23,316.98,215.81,385.6,294.42,385.6L294.42,385.6z M142.59,144.68c-0.07,0.18-0.14,0.36-0.22,0.54l0.23-0.24
			C142.6,144.89,142.59,144.78,142.59,144.68L142.59,144.68z"/>
		<g>
			<defs>
				<path id="SVGID_1_" d="M294.42,385.6c-33.17,0-63.24-13.68-85.01-35.54c-31.75-31.87-35.26-67.66-35.26-84.59
					c0-16.59,2.38-30.16,8.83-45.46c5.7-13.52,14.55-25.63,24.53-34.85c0.48-0.45,0.9-0.65,1.51-0.66c0.37,0.06,0.82,0.08,1.19,0.34
					c1.4,0.96,1.32,3.48,1.32,3.48c0,8.82,1.3,30.49,6.33,49.78c5.76,22.09,16.77,47.41,38.48,69.13
					c26.68,26.68,74.35,46.25,116.8,46.25c14.9,0,24.12-2.66,25.36-2.69c-67.78,7.08-140.4-28.62-159.23-90.66
					c-3.51-11.57-4.88-21.13-4.88-35.01c0-21.03,8.47-36.13,18.73-48.62c1.55-33.48-6.04-63.47-21-85.38
					c-6.07-8.58-12.5-13.96-22.01-18.11c-3.96-1.73-6.11,0.73-6.11,2.83c0,1.38-0.52,8.97-4.18,22.8
					c-5.6,21.14-14.73,30.74-20.99,39.34c-9.82,13.48-15,25.68-18.41,38.13c-1.49,5.58-2.59,13.49-2.63,18.99
					c0,1.38,0.04,2.75,0.1,4.11c-5.52-10.9-9.14-21.65-12.17-32.54c-0.88-3.15-2.98-6.4-5.15-6.4c-2.2,0-4.73,4.09-5.74,7.27
					c-5.19,16.37-7.51,39.21-7.59,56.2C127.23,316.98,215.81,385.6,294.42,385.6L294.42,385.6z M142.59,144.68
					c-0.07,0.18-0.14,0.36-0.22,0.54l0.23-0.24C142.6,144.89,142.59,144.78,142.59,144.68L142.59,144.68z"/>
			</defs>
			<clipPath id="SVGID_00000110456392677293058060000018319827575151092871_">
				<use xlink:href="#SVGID_1_"  style="overflow:visible;"/>
			</clipPath>
			
				<g id="path34391" sodipodi:nodetypes="ccccsc" style="clip-path:url(#SVGID_00000110456392677293058060000018319827575151092871_);filter:url(#filter34608);">
				<path class="st4" d="M274.62,78.3L137.44,234.96l48.71,116.72l221.74,3.13c0,0-78.3-136.47-78.3-139.66
					C329.59,211.97,274.62,78.3,274.62,78.3z"/>
			</g>
		</g>
		
			<radialGradient id="path7141_00000107576368993876697250000018406252934203574966_" cx="196.1319" cy="334.5303" r="74.4469" gradientTransform="matrix(-7.3507 1.76 2.0488 8.5571 1269.2939 -2865.4668)" gradientUnits="userSpaceOnUse">
			<stop  offset="0.2122" style="stop-color:#0A5CB2"/>
			<stop  offset="0.6881" style="stop-color:#106CC8"/>
			<stop  offset="1" style="stop-color:#198EF0;stop-opacity:0.9961"/>
		</radialGradient>
		<path id="path7141" style="fill:url(#path7141_00000107576368993876697250000018406252934203574966_);" d="M138.67,161.16
			c-1.05,0.89-2.05,2.36-2.83,3.91c0,0,0-0.01,0-0.01c-0.02,0.04-0.03,0.08-0.05,0.12c-0.18,0.37-0.35,0.73-0.5,1.1
			c-0.01,0.04-0.03,0.07-0.04,0.11c-0.16,0.39-0.3,0.79-0.42,1.16c-0.31,0.97-0.6,1.97-0.89,2.98c-0.03,0.09-0.05,0.19-0.08,0.28
			c-0.25,0.89-0.49,1.79-0.72,2.71c-0.07,0.29-0.15,0.58-0.22,0.88c0,0,0,0,0,0c-0.2,0.79-0.39,1.6-0.57,2.41v0
			c-3.45,15.04-5.03,32.96-5.1,46.94c0,116.52,94.62,210.94,211.35,210.94c116.72,0,210.72-94.43,210.71-210.94
			c0-20.1-2.74-39.42-7.9-57.72c0.5,5.79,0.77,11.65,0.77,17.56c0,108.68-92.64,202.22-203.59,202.22
			c-73.68,0-123.46-34.04-143.96-54.54c-20.67-20.67-36.56-39.76-45.32-59.27c-10.06-23.7-14.64-43.13-15.57-64.1
			C133.75,182.68,136.24,175.6,138.67,161.16L138.67,161.16z"/>
		
			<linearGradient id="path8781_00000047751202872028173510000008524420026163839883_" gradientUnits="userSpaceOnUse" x1="109.4495" y1="394.2364" x2="109.4495" y2="343.2895" gradientTransform="matrix(4.0215 0 0 -4.0215 -205.2481 1770.2672)">
			<stop  offset="0.209" style="stop-color:#ACA6FE"/>
			<stop  offset="1" style="stop-color:#ACA6FE;stop-opacity:0"/>
		</linearGradient>
		
			<path id="path8781" sodipodi:nodetypes="ccsssccsscc" style="fill:url(#path8781_00000047751202872028173510000008524420026163839883_);" d="
			M209.02,184.49c-0.62,0.02-1.03,0.21-1.51,0.66c-9.98,9.23-18.83,21.33-24.53,34.85c-6.45,15.3-8.83,28.88-8.83,45.46
			c0,16.93,3.51,52.72,35.26,84.59c21.77,21.86,51.84,35.54,85.01,35.54l1.25-3.8c-72.26,0-108.7-69.01-108.7-130.39
			c0-15.13,2.13-29.37,7.63-42.21c4.2-9.81,9.53-17.67,15.38-24.5C209.66,184.57,209.32,184.54,209.02,184.49L209.02,184.49z"/>
		
			<linearGradient id="path11330_00000119840218638054768470000004046022855699622073_" gradientUnits="userSpaceOnUse" x1="129.5758" y1="421.0843" x2="159.3151" y2="421.0843" gradientTransform="matrix(4.0215 0 0 -4.0215 -205.2481 1770.2672)">
			<stop  offset="0" style="stop-color:#1C6BC6"/>
			<stop  offset="0.8746" style="stop-color:#1C6BC6;stop-opacity:0"/>
		</linearGradient>
		<path id="path11330" style="fill:url(#path11330_00000119840218638054768470000004046022855699622073_);" d="M400.14,49.76
			c-34.79,5.41-72.53,20.08-84.3,54.22c6.13-1.12,12.66-6.42,19.29-10.74l24.39-12.94c13.26-3.9,30.58-7.88,40.62-7.88V49.76z"/>
		
			<linearGradient id="path11198_00000055709494177887442210000017384213397827178172_" gradientUnits="userSpaceOnUse" x1="118.3669" y1="399.984" x2="131.8017" y2="413.9046" gradientTransform="matrix(4.0215 0 0 -4.0215 -205.2481 1770.2672)">
			<stop  offset="0.5361" style="stop-color:#4361AB"/>
			<stop  offset="1" style="stop-color:#4361AB;stop-opacity:0"/>
		</linearGradient>
		
			<path id="path11198" sodipodi:nodetypes="cccccccc" style="fill:url(#path11198_00000055709494177887442210000017384213397827178172_);" d="
			M308.22,121.66c-7.95,3.57-15.26,7.21-24.98,16.98c-6.53,7.19-10.49,14.06-13.35,21.61c-0.06-0.22-0.12-0.46-0.18-0.68
			c0.12,0.53,0.28,1.05,0.43,1.55c6.28-4.54,13.11-8.26,20.21-11.23l6.31-4.84L308.22,121.66z"/>
		<path id="path11274" sodipodi:nodetypes="cscsc" class="st9" d="M335.14,93.24c0.34-5.25,4.38-10.02,8.86-12.41
			c4.54-2.43,9.86-3.96,15.53-0.53c1.64,7.46-1.07,12.32-6.32,15.49C347.58,99.17,340.42,98.95,335.14,93.24L335.14,93.24z"/>
		
			<radialGradient id="circle10320_00000074431096459727217660000017950862188408110749_" cx="129.4668" cy="404.2747" r="30.185" gradientTransform="matrix(4.8639 1.8612 1.0466 -2.7352 -715.0631 1039.5575)" gradientUnits="userSpaceOnUse">
			<stop  offset="0" style="stop-color:#1B56A4"/>
			<stop  offset="1" style="stop-color:#1068BD"/>
		</radialGradient>
		<path id="circle10320" style="fill:url(#circle10320_00000074431096459727217660000017950862188408110749_);" d="M339.01,115.05
			c-21.1,0-56.65,11.34-68.87,46.07c20.05-14.51,45.78-20.62,67.92-20.79c0.87,0,1.74,0.01,2.6,0.03c0.81,0.02,1.61,0.04,2.41,0.07
			c0.01,0,0.02,0,0.04,0c0.42,0.02,0.83,0.04,1.24,0.06c0.46,0.02,0.92,0.04,1.37,0.07c0.26,0.02,0.52,0.03,0.78,0.05
			c0.58,0.04,1.15,0.08,1.72,0.12c0.33,0.03,0.65,0.06,0.98,0.08c0.49,0.04,0.99,0.08,1.48,0.13c0.35,0.03,0.71,0.08,1.06,0.11
			c0.48,0.05,0.96,0.1,1.44,0.16c0.35,0.04,0.7,0.09,1.05,0.13c0.46,0.06,0.91,0.12,1.37,0.18c0.33,0.05,0.66,0.1,0.99,0.14
			c0.52,0.08,1.04,0.15,1.56,0.24c0.25,0.04,0.51,0.08,0.76,0.12c0.52,0.09,1.04,0.17,1.56,0.27c0.35,0.06,0.69,0.13,1.04,0.19
			c0.46,0.09,0.93,0.18,1.39,0.27c0.29,0.06,0.57,0.12,0.86,0.18c0.52,0.11,1.03,0.21,1.55,0.33c0.27,0.06,0.53,0.12,0.8,0.18
			c0.53,0.12,1.05,0.24,1.57,0.37c0.25,0.06,0.51,0.12,0.76,0.19c0.52,0.13,1.04,0.26,1.56,0.4c0.24,0.06,0.48,0.13,0.73,0.19
			c0.55,0.15,1.09,0.3,1.64,0.45c0.21,0.06,0.41,0.12,0.62,0.18c0.56,0.16,1.12,0.33,1.67,0.5c0.2,0.06,0.4,0.12,0.6,0.18
			c0.56,0.17,1.11,0.35,1.66,0.53c0.19,0.06,0.38,0.13,0.57,0.19c0.56,0.19,1.12,0.38,1.68,0.58c0.18,0.06,0.36,0.13,0.53,0.19
			c0.59,0.21,1.17,0.42,1.75,0.64c0.13,0.05,0.25,0.09,0.38,0.14c0.62,0.23,1.23,0.47,1.85,0.72c0.11,0.04,0.22,0.09,0.32,0.13
			c0.58,0.23,1.16,0.47,1.74,0.72c0.15,0.06,0.29,0.12,0.44,0.18c0.6,0.26,1.19,0.52,1.78,0.78c0.09,0.04,0.19,0.08,0.28,0.12
			c0.68,0.31,1.36,0.62,2.03,0.94c6.93,3.29,13.35,7.22,19.12,11.66c0,0,0,0,0-0.01c17.22,13.25,28.83,31.16,31.89,50.9
			c-1.78-54.35-43.68-98.43-100.64-99.26C340.09,115.06,339.55,115.05,339.01,115.05L339.01,115.05z"/>
		
			<linearGradient id="path10318_00000044136414998847437030000002589632692126952885_" gradientUnits="userSpaceOnUse" x1="241.9487" y1="432.6874" x2="148.343" y2="400.5524" gradientTransform="matrix(4.0215 0 0 -4.0215 -450.3169 1770.2672)">
			<stop  offset="0.3826" style="stop-color:#9F8DF0"/>
			<stop  offset="1" style="stop-color:#A398F5"/>
		</linearGradient>
		<path id="path10318" style="fill:url(#path10318_00000044136414998847437030000002589632692126952885_);" d="M434.88,30.46
			c-73.46,0-115.9,27.83-129.91,61.69c-1.03,2.49-1.87,5.05-2.78,7.59c-1.02,0.38-2,0.8-2.99,1.23c-0.89,0.4-1.76,0.82-2.62,1.25
			c-1.07,0.54-2.12,1.11-3.14,1.71c-9.14,5.39-16.37,13.27-20.72,22.55c-0.04,0.09-0.08,0.17-0.12,0.25
			c-0.42,0.92-0.82,1.85-1.18,2.8c-0.08,0.21-0.16,0.42-0.24,0.64c-0.33,0.88-0.63,1.77-0.91,2.68c-0.1,0.33-0.2,0.67-0.29,1.01
			c-1.18,4.18-1.82,8.55-1.82,13.04c0,0.26,0.01,0.53,0.02,0.79c0.01,0.71,0.04,1.42,0.09,2.15c0.02,0.39,0.05,0.77,0.09,1.16
			c0.08,0.93,0.17,1.87,0.29,2.81c0.03,0.2,0.06,0.4,0.09,0.61c0.15,1.02,0.32,2.04,0.53,3.04c0.03,0.15,0.06,0.29,0.09,0.44
			c0.17,0.79,0.38,1.56,0.58,2.32c2.9-7.64,6.93-14.6,13.62-21.9c12.05-13.13,31.38-22.02,49.95-23.19
			c-4.93-5.16-11.01-8.96-17.66-11.14l0.01,0c15.65-45.41,77.23-56.38,116.72-56.92c40.81,0,74.76,5.79,101.48,16.25
			C509.06,43.77,472.6,30.46,434.88,30.46L434.88,30.46z"/>
		
			<linearGradient id="path10383_00000004524604841189452560000016494809992957321624_" gradientUnits="userSpaceOnUse" x1="135.1451" y1="352.971" x2="135.1451" y2="415.0809" gradientTransform="matrix(4.0215 0 0 -4.0215 -205.2481 1770.2672)">
			<stop  offset="0" style="stop-color:#83CBFE"/>
			<stop  offset="0.5981" style="stop-color:#C0E0FA"/>
		</linearGradient>
		
			<path id="path10383" sodipodi:nodetypes="cccscccsccc" style="fill:url(#path10383_00000004524604841189452560000016494809992957321624_);" d="
			M338.06,140.33c-22.14,0.17-47.87,6.28-67.92,20.79c-7.5,5.21-12.42,10.24-17.01,15.38c-10.25,12.49-18.73,27.59-18.73,48.62
			c0,13.88,1.37,23.44,4.88,35.01c18.83,62.04,91.45,97.74,159.23,90.66c-19.3-1.85-47.94-11.16-67.27-32.32
			c-1.25-1.36-2.54-2.1-2.54-4.96c0-4.49,7.27-3.7,10.71-3.74c47.79-0.04,102-30.66,102.68-84.96
			C442.08,179.19,396.39,140.33,338.06,140.33L338.06,140.33z"/>
		<g>
			<defs>
				<path id="SVGID_00000085946461498042998810000018009155167028666029_" d="M338.06,140.33c-22.14,0.17-47.87,6.28-67.92,20.79
					c-7.5,5.21-12.42,10.24-17.01,15.38c-10.25,12.49-18.73,27.59-18.73,48.62c0,13.88,1.37,23.44,4.88,35.01
					c18.83,62.04,91.45,97.74,159.23,90.66c-19.3-1.85-47.94-11.16-67.27-32.32c-1.25-1.36-2.54-2.1-2.54-4.96
					c0-4.49,7.27-3.7,10.71-3.74c47.79-0.04,102-30.66,102.68-84.96C442.08,179.19,396.39,140.33,338.06,140.33L338.06,140.33z"/>
			</defs>
			<clipPath id="SVGID_00000013154202013730532000000017536575568460800942_">
				<use xlink:href="#SVGID_00000085946461498042998810000018009155167028666029_"  style="overflow:visible;"/>
			</clipPath>
			
				<g id="path23094" sodipodi:nodetypes="ccsccccsccc" style="clip-path:url(#SVGID_00000013154202013730532000000017536575568460800942_);filter:url(#filter25482);">
				<path class="st14" d="M421.69,192.09l-73.97,58.26c-3.08,2.8-6.67,5.5-11.21,5.5c-3.18,0-8.13-2.7-11.21-5.5l-72.17-56.49
					c-2.7,3.29,3.87,2.13,1.54,5.84l72.29,72.45c2.5,2.27,6.48,1,9.55,1c4,0,8.15,1.27,10.65-1l73.76-73.9
					C418.46,194.48,424.79,195.5,421.69,192.09z"/>
			</g>
		</g>
		
			<linearGradient id="path12930_00000161595694241462847340000009147527628414418604_" gradientUnits="userSpaceOnUse" x1="134.9383" y1="378.6395" x2="134.9383" y2="416.4682" gradientTransform="matrix(4.0215 0 0 -4.0215 -205.2481 1770.2672)">
			<stop  offset="0" style="stop-color:#D7ECFC"/>
			<stop  offset="0.8328" style="stop-color:#FBFFFE"/>
		</linearGradient>
		
			<path id="path12930" sodipodi:nodetypes="ccccsccc" style="fill:url(#path12930_00000161595694241462847340000009147527628414418604_);" d="
			M338.06,140.33c-22.14,0.17-47.87,6.28-67.92,20.79c-7.5,5.21-12.42,10.24-17.01,15.38l72.17,65.57c3.08,2.8,8.03,5.5,11.21,5.5
			c4.54,0,8.13-2.7,11.21-5.5l73.97-67.34C402.89,154.04,372.7,140.33,338.06,140.33z"/>
		<path id="path12922" class="st16" d="M421.69,174.73l-73.97,67.34c-3.08,2.8-6.67,5.5-11.21,5.5c-3.18,0-8.13-2.7-11.21-5.5
			l-72.17-65.57c-2.7,3.29-5.27,6.76-7.6,10.47l81.42,73.89c2.5,2.27,6.48,3.43,9.55,3.43c4,0,8.15-1.17,10.65-3.43l82.88-75.35
			C427.58,181.75,424.79,178.14,421.69,174.73L421.69,174.73z"/>
		
			<linearGradient id="path8779_00000029039683228163328550000012231194134173419707_" gradientUnits="userSpaceOnUse" x1="172.0143" y1="380.5424" x2="146.6246" y2="350.4185" gradientTransform="matrix(4.0215 0 0 -4.0215 -246.3284 1770.2672)">
			<stop  offset="0.0772" style="stop-color:#ACA6FE;stop-opacity:0"/>
			<stop  offset="1" style="stop-color:#7388E5;stop-opacity:0.9961"/>
		</linearGradient>
		
			<path id="path8779" sodipodi:nodetypes="cssscscsscc" style="fill:url(#path8779_00000029039683228163328550000012231194134173419707_);" d="
			M446.06,233.86c-1.55,12.16-9.67,21.87-16.83,32.38c-3.06,4.49-6.73,8.88-10.32,12.43c-4.48,4.44-9.15,8.16-13.93,11.38
			c-19.1,12.89-43.06,19.71-65.59,19.73c-3.44,0.03-10.71-0.75-10.71,3.74c0,1.19,0.23,2,0.58,2.65
			c13.3,7.87,28.65,12.37,48.03,12.37c28.23,0,55.25-12.4,72.3-28.89c11.39-11.02,30.51-30.79,32.96-65.78L446.06,233.86z"/>
		<g>
			<defs>
				<path id="SVGID_00000124150824140257817730000004859484069846295186_" d="M434.88,30.46c-73.46,0-115.9,27.83-129.91,61.69
					c-1.03,2.49-1.87,5.05-2.78,7.59c-1.02,0.38-2,0.8-2.99,1.23c-0.89,0.4-1.76,0.82-2.62,1.25c-1.07,0.54-2.12,1.11-3.14,1.71
					c-9.14,5.39-16.37,13.27-20.72,22.55c-0.04,0.09-0.08,0.17-0.12,0.25c-0.42,0.92-0.82,1.85-1.18,2.8
					c-0.08,0.21-0.16,0.42-0.24,0.64c-0.33,0.88-0.63,1.77-0.91,2.68c-0.1,0.33-0.2,0.67-0.29,1.01c-1.18,4.18-1.82,8.55-1.82,13.04
					c0,0.26,0.01,0.53,0.02,0.79c0.01,0.71,0.04,1.42,0.09,2.15c0.02,0.39,0.05,0.77,0.09,1.16c0.08,0.93,0.17,1.87,0.29,2.81
					c0.03,0.2,0.06,0.4,0.09,0.61c0.15,1.02,0.32,2.04,0.53,3.04c0.03,0.15,0.06,0.29,0.09,0.44c0.17,0.79,0.38,1.56,0.58,2.32
					c2.9-7.64,6.93-14.6,13.62-21.9c12.05-13.13,31.38-22.02,49.95-23.19c-4.93-5.16-11.01-8.96-17.66-11.14l0.01,0
					c15.65-45.41,77.23-56.38,116.72-56.92c40.81,0,74.76,5.79,101.48,16.25C509.06,43.77,472.6,30.46,434.88,30.46L434.88,30.46z"
					/>
			</defs>
			<clipPath id="SVGID_00000094582930303710979420000014121748412689175437_">
				<use xlink:href="#SVGID_00000124150824140257817730000004859484069846295186_"  style="overflow:visible;"/>
			</clipPath>
			
				<g id="path38173" style="clip-path:url(#SVGID_00000094582930303710979420000014121748412689175437_);filter:url(#filter38313);">
				<path class="st19" d="M353.2,119.32c0,12.99-8.85,23.53-19.77,23.53s-19.77-10.53-19.77-23.53s8.85-23.53,19.77-23.53
					S353.2,106.32,353.2,119.32C353.2,119.32,353.2,119.32,353.2,119.32L353.2,119.32z"/>
			</g>
		</g>
	</g>
</g>
</svg>
