<?xml version="1.0" encoding="UTF-8" standalone="no"?>
<svg
   viewBox="0 0 48 48"
   version="1.1"
   id="svg9"
   sodipodi:docname="file-manager.svg"
   inkscape:version="1.3.2 (091e20e, 2023-11-25, custom)"
   xmlns:inkscape="http://www.inkscape.org/namespaces/inkscape"
   xmlns:sodipodi="http://sodipodi.sourceforge.net/DTD/sodipodi-0.dtd"
   xmlns="http://www.w3.org/2000/svg"
   xmlns:svg="http://www.w3.org/2000/svg">
  <sodipodi:namedview
     id="namedview9"
     pagecolor="#ffffff"
     bordercolor="#000000"
     borderopacity="0.25"
     inkscape:showpageshadow="2"
     inkscape:pageopacity="0.0"
     inkscape:pagecheckerboard="0"
     inkscape:deskcolor="#d1d1d1"
     inkscape:zoom="17.104167"
     inkscape:cx="24"
     inkscape:cy="23.970767"
     inkscape:window-width="1350"
     inkscape:window-height="1040"
     inkscape:window-x="538"
     inkscape:window-y="769"
     inkscape:window-maximized="0"
     inkscape:current-layer="svg9" />
  <defs
     id="defs2">
    <linearGradient
       id="linearGradient3764"
       x1="1"
       x2="47"
       gradientUnits="userSpaceOnUse"
       gradientTransform="matrix(0,-1,1,0,-1.5e-6,47.999998)">
      <stop
         style="stop-color:#7568a0;stop-opacity:1"
         id="stop1" />
      <stop
         offset="1"
         style="stop-color:#8074a8;stop-opacity:1"
         id="stop2" />
    </linearGradient>
  </defs>
  <g
     id="g5" />
  <g
     transform="matrix(3.543307,0,0,3.543307,0.99999982,2)"
     style="fill:#000;opacity:0.1;fill-opacity:1"
     id="g7">
    <path
       d="m 14 16 c -0.5 0 -1 0.5 -1 1 0 5.667 0 11.333 0 17 l 24 0 0 -14.934 c 0 -0.533 -0.5 -1.066 -1 -1.066 c -3.333 0 -6.667 0 -10 0 l -1 -2 z"
       transform="matrix(0.28222223,0,0,0.28222223,-0.28222231,-0.56444449)"
       style="stroke:none"
       id="path7" />
  </g>
  <g
     transform="scale(3.543307,3.543307)"
     id="g9">
    <path
       d="m 3.387 4.516 0 3.951 6.491 0 0 -1.976 -0.282 -1.693 -2.54 0 -0.282 -0.564 -3.104 0 c -0.141 0 -0.282 0.141 -0.282 0.282 z"
       style="fill:#ff8f00;fill-opacity:1;stroke:none"
       id="path8" />
    <rect
       y="5.08"
       x="3.951"
       height="1.129"
       width="3.104"
       style="fill:#fffdf0;fill-opacity:1;stroke:none"
       id="rect8" />
    <path
       d="m 10.16 5.099 0 4.215 -6.773 0 0 -3.951 3.387 0 0.282 -0.564 2.822 0 c 0.141 0 0.282 0.151 0.282 0.301 z"
       style="fill:#ffca28;fill-opacity:1;stroke:none"
       id="path9" />
  </g>
</svg>
