<?xml version="1.0" encoding="UTF-8" standalone="no"?>
<svg xmlns:rdf="http://www.w3.org/1999/02/22-rdf-syntax-ns#" style="enable-background:new" xmlns="http://www.w3.org/2000/svg" height="64" width="64" version="1.0" xmlns:cc="http://creativecommons.org/ns#" xmlns:xlink="http://www.w3.org/1999/xlink" xmlns:dc="http://purl.org/dc/elements/1.1/">
 <defs>
  <linearGradient id="linearGradient4266" x1="291" gradientUnits="userSpaceOnUse" y1="172" gradientTransform="matrix(0,-1,1,0,-140,352)" x2="349" y2="172">
   <stop stop-color="#f57d33" offset="0"/>
   <stop stop-color="#faa653" offset="1"/>
  </linearGradient>
 </defs>
 <metadata>
  <rdf:RDF>
   <cc:Work rdf:about="">
    <dc:format>image/svg+xml</dc:format>
    <dc:type rdf:resource="http://purl.org/dc/dcmitype/StillImage"/>
    <dc:creator>
     <cc:Agent>
      <dc:title>Sam Hewitt</dc:title>
     </cc:Agent>
    </dc:creator>
    <dc:source/>
    <cc:license rdf:resource=""/>
    <dc:title/>
    <dc:subject>
     <rdf:Bag/>
    </dc:subject>
    <dc:date/>
    <dc:rights>
     <cc:Agent>
      <dc:title/>
     </cc:Agent>
    </dc:rights>
    <dc:publisher>
     <cc:Agent>
      <dc:title/>
     </cc:Agent>
    </dc:publisher>
    <dc:identifier/>
    <dc:relation/>
    <dc:language/>
    <dc:coverage/>
    <dc:description/>
    <dc:contributor>
     <cc:Agent>
      <dc:title/>
     </cc:Agent>
    </dc:contributor>
   </cc:Work>
   <cc:Work rdf:about="">
    <dc:format>image/svg+xml</dc:format>
    <dc:type rdf:resource="http://purl.org/dc/dcmitype/StillImage"/>
   </cc:Work>
  </rdf:RDF>
 </metadata>
 <rect opacity=".1" style="color:#bebebe;enable-background:accumulate" ry="12.5" height="60" width="60" y="3" x="2"/>
 <path style="color:#bebebe;enable-background:accumulate" fill="url(#linearGradient4266)" d="m14.5 2.5c-6.66 0-12 5.34-12 12v35c0 6.66 5.34 12 12 12h35c6.66 0 12-5.34 12-12v-35c0-6.66-5.34-12-12-12h-35z"/>
 <path opacity=".2" d="m40.16 14.73c9.5418 8.6128 7.6281 17.69 7.6281 17.69 0.23344-3.1815-2.7687-9.2926-6.8238-11.762 5.4688 7.1377 3.9344 12.336 3.9344 12.336s-1.3067-3.4776-4.4877-5c5.7477 11.055-7.7668 21.148-16.742 10.297 0.96633 0.5132 2.4554 0.90256 4.8412 0.74795 1.5872-0.10286 3.3362-0.52854 5.374-0.94263 3.9709-0.80692 2.1795-4.3127 0.15369-4.5236-0.95859-0.0998-3.8185 1.7704-6.0809 1.9211-2.0841 0.13879-4.2879-2.8842-4.2879-2.8842 1.2356-2.8591 5.5833-2.7254 5.2203-2.7254-0.396 0-0.98361-0.32787-1.8033-1.3115 1.1475-0.16394 5.7571-3.427 5.2459-5.4098-1.1475 1.3115-4.3445 1.7874-6.3934-0.16393 0 0 0.4918-2.459 1.9672-3.6066-1.8033 0.32787-2.7074 0.90583-3.6066 1.4754-2.1312-0.4918-5.082-0.16393-6.2295 0.65574 0 0-0.16173-0.98163 0.10246-2.9662-3.8 3.64-6.17 8.76-6.17 14.44 0 11.046 8.9543 20 20 20s20-8.9543 20-20c0-8.1417-4.8628-15.148-11.844-18.268z" style="color:#000000;enable-background:accumulate"/>
 <path d="m40.16 13.73c9.5418 8.6128 7.6281 17.69 7.6281 17.69 0.23344-3.1815-2.7687-9.2926-6.8238-11.762 5.4688 7.1377 3.9344 12.336 3.9344 12.336s-1.3067-3.4776-4.4877-5c5.7477 11.055-7.7668 21.148-16.742 10.297 0.96633 0.5132 2.4554 0.90256 4.8412 0.74795 1.5872-0.10286 3.3362-0.52854 5.374-0.94263 3.9709-0.80692 2.1795-4.3127 0.15369-4.5236-0.95859-0.0998-3.8185 1.7704-6.0809 1.9211-2.0841 0.13879-4.2879-2.8842-4.2879-2.8842 1.2356-2.8591 5.5833-2.7254 5.2203-2.7254-0.396 0-0.98361-0.32787-1.8033-1.3115 1.1475-0.16394 5.7571-3.427 5.2459-5.4098-1.1475 1.3115-4.3445 1.7874-6.3934-0.16393 0 0 0.4918-2.459 1.9672-3.6066-1.8033 0.32787-2.7074 0.90583-3.6066 1.4754-2.1312-0.4918-5.082-0.16393-6.2295 0.65574 0 0-0.16173-0.98163 0.10246-2.9662-3.8 3.64-6.17 8.76-6.17 14.44 0 11.046 8.9543 20 20 20s20-8.9543 20-20c0-8.1417-4.8628-15.148-11.844-18.268z" style="color:#000000;enable-background:accumulate" fill="#fff"/>
 <path opacity="0.41" d="m49.5 62c6.388 0 11.5-5.112 11.5-11.5v-1c0 6.388-5.112 11.5-11.5 11.5h-35c-6.3883 0-11.5-5.112-11.5-11.5v1c0 6.388 5.1117 11.5 11.5 11.5h35z" style="color:#bebebe;enable-background:accumulate"/>
 <path opacity=".1" style="color:#bebebe;enable-background:accumulate" d="m14.5 61c-6.3883 0-11.5-5.112-11.5-11.5v-1c0 6.388 5.1117 11.5 11.5 11.5h35c6.388 0 11.5-5.112 11.5-11.5v1c0 6.388-5.112 11.5-11.5 11.5h-35z" fill="#fff"/>
 <path opacity="0.41" style="color:#bebebe;enable-background:accumulate" d="m14.5 2c-6.925 0-12.5 5.575-12.5 12.5v35c0 6.925 5.575 12.5 12.5 12.5h35c6.925 0 12.5-5.575 12.5-12.5v-35c0-6.925-5.575-12.5-12.5-12.5h-35zm0 1h35c6.388 0 11.5 5.1117 11.5 11.5v35c0 6.388-5.112 11.5-11.5 11.5h-35c-6.3883 0-11.5-5.112-11.5-11.5v-35c0-6.3883 5.1117-11.5 11.5-11.5z"/>
</svg>
